<?xml version="1.0" encoding="utf-8"?>
<!-- Generator: Adobe Illustrator 23.0.4, SVG Export Plug-In . SVG Version: 6.00 Build 0)  -->
<svg version="1.1" id="Layer_1" xmlns="http://www.w3.org/2000/svg" xmlns:xlink="http://www.w3.org/1999/xlink" x="0px" y="0px"
	 viewBox="0 0 457 326" style="enable-background:new 0 0 457 326;" xml:space="preserve">
<style type="text/css">
	.st0{fill-rule:evenodd;clip-rule:evenodd;fill:#F47F20;}
</style>
<g transform="">
	<path class="st0" d="M31.2,1.9h9.8v49.3h-9.8V31.3H19.8v19.9H10V1.9h9.8v19.6h11.4L31.2,1.9z M52.3,51.2V1.9h26.2v9.8H62.1v9.8
		h16.4v9.8H62.1v10.1h16.4v9.8H52.3z M87.8,51.2V1.9H114v9.8H97.6v9.8H114v9.8H97.6v10.1H114v9.8H87.8z M123.4,51.2V1.9h9.8v39.5
		h16.4v9.8H123.4z M196.5,51.2V31.3h-11.4v19.9h-9.8V1.9h9.8v19.6h11.4V1.9h9.8v49.3H196.5z M255.8,26.6c0-2.2-0.4-4.2-1.2-6.1
		c-0.8-1.9-1.9-3.6-3.4-5c-1.4-1.4-3.1-2.6-5-3.4c-1.9-0.8-4-1.2-6.1-1.2c-2.2,0-4.2,0.4-6.1,1.2c-1.9,0.8-3.6,1.9-5,3.4
		c-1.4,1.4-2.6,3.1-3.4,5s-1.3,4-1.3,6.1c0,2.2,0.4,4.2,1.3,6.1c0.8,1.9,2,3.6,3.4,5c1.4,1.4,3.1,2.6,5,3.4c1.9,0.8,4,1.2,6.1,1.2
		c2.2,0,4.2-0.4,6.1-1.2c1.9-0.8,3.6-1.9,5-3.4c1.4-1.4,2.6-3.1,3.4-5C255.4,30.9,255.8,28.8,255.8,26.6z M265.6,26.6
		c0,3.5-0.7,6.9-2,10c-1.3,3.1-3.2,5.8-5.4,8.1c-2.3,2.3-5,4.1-8.1,5.5c-3.1,1.3-6.4,2-10,2c-3.5,0-6.9-0.7-10-2
		c-3.1-1.3-5.8-3.2-8.1-5.5c-2.3-2.3-4.1-5-5.5-8.1c-1.3-3.1-2-6.4-2-10c0-3.5,0.7-6.9,2-10c1.3-3.1,3.2-5.8,5.5-8.2
		c2.3-2.3,5-4.2,8.1-5.5c3.1-1.3,6.4-2,10-2c3.5,0,6.9,0.7,10,2c3.1,1.3,5.8,3.2,8.1,5.5c2.3,2.3,4.1,5,5.4,8.2
		C264.9,19.7,265.6,23.1,265.6,26.6z M273.9,51.2V1.9h9.8v39.5h16.4v9.8H273.9z M307.2,51.2V1.9h9.8v39.5h16.4v9.8H307.2z
		 M353.4,27.3l-4.9,12.7h9.7L353.4,27.3z M362.4,51.2l-1.5-4.1h-15l-1.5,4.1h-10.5l19.5-50.8l19.4,50.8H362.4z M387.4,28.2v22.9
		h-9.8V0.6L398.5,25v-23h9.8v50.6L387.4,28.2z M447,26.6c0-2.1-0.4-4-1.1-5.8c-0.8-1.8-1.8-3.4-3.2-4.7c-1.3-1.3-2.9-2.4-4.7-3.2
		c-1.8-0.8-3.8-1.2-5.8-1.2h-2.7v29.7h2.7c2.1,0,4-0.4,5.8-1.2c1.8-0.8,3.4-1.8,4.7-3.2c1.3-1.3,2.4-2.9,3.2-4.7
		C446.6,30.6,447,28.7,447,26.6z M456.8,26.6c0,3.4-0.6,6.6-1.9,9.6c-1.3,3-3,5.6-5.3,7.8c-2.2,2.2-4.8,4-7.8,5.3
		c-3,1.3-6.2,1.9-9.6,1.9h-12.4V1.9h12.4c3.4,0,6.6,0.6,9.6,1.9c3,1.3,5.6,3.1,7.8,5.3c2.2,2.2,4,4.8,5.3,7.8
		C456.1,20,456.8,23.2,456.8,26.6L456.8,26.6z"/>
	<path class="st0" d="M43.8,124.9c0,1.3,1,2.3,2.3,2.3h0.7c1.3,0,3.3-0.2,4.5-0.4c0,0,4.8-0.9,7.5-3.5c2.7-2.6,4-5.8,4-9.6
		c0-3.7-1.3-6.8-4-9.4c-2.7-2.6-7.5-3.5-7.5-3.5c-1.2-0.2-3.3-0.4-4.5-0.4h-0.7c-1.3,0-2.3,1-2.3,2.3L43.8,124.9z M38.9,97.6
		c0-1.3,1-2.3,2.3-2.3h5.6c1.3,0,3.3,0.2,4.5,0.4c0,0,7.4,1.4,11,4.9c3.6,3.6,5.4,7.9,5.4,12.9c0,5.2-1.8,9.6-5.4,13.1
		c-3.6,3.6-11,4.9-11,4.9c-1.2,0.2-3.3,0.4-4.5,0.4h-5.6c-1.3,0-2.3-1-2.3-2.3V97.6z M43.8,189.8c0,1.3,1,2.3,2.3,2.3h4.7
		c1.3,0,3.3-0.2,4.5-0.4c0,0,4.9-0.9,7.6-3.7c2.7-2.7,4.1-6,4.1-9.9c0-3.9-1.3-7.2-4.1-10c-2.7-2.8-7.6-3.7-7.6-3.7
		c-1.2-0.2-3.3-0.4-4.5-0.4h-4.7c-1.3,0-2.3,1-2.3,2.3V189.8z M55.3,196.5c-1.2,0.2-3.3,0.4-4.5,0.4h-9.6c-1.3,0-2.3-1-2.3-2.3
		v-33.4c0-1.3,1-2.3,2.3-2.3h9.6c1.3,0,3.3,0.2,4.5,0.4c0,0,7.5,1.5,11.1,5.2c3.7,3.7,5.5,8.3,5.5,13.4c0,5.2-1.9,9.7-5.5,13.3
		C62.8,195.1,55.3,196.5,55.3,196.5z M11.9,221.6c0,1.3,1,2.3,2.3,2.3h36.6c1.3,0,3.3-0.1,4.6-0.2c0,0,9.9-1,15.4-3.3
		c5.5-2.4,10.4-5.7,14.6-9.8c4.1-4.1,7.5-9.1,9.9-14.6c2.4-5.5,3.7-11.5,3.7-17.9c0-6.6-1.5-12.8-4.4-18.3c-2.9-5.5-11-12.2-11-12.2
		c-1-0.8-2.4-1.9-3.2-2.4c-0.8-0.5-0.9-1.4-0.1-2c0.7-0.6,2.1-1.8,3-2.7c0,0,6-6.1,8.1-10.9c2.1-4.9,3.2-10.3,3.2-16
		c0-6.2-1.2-12.1-3.5-17.5c-2.4-5.5-5.6-10.3-9.7-14.4c-4.1-4.1-8.9-7.4-14.4-9.7c-5.5-2.4-15.4-3.3-15.4-3.3
		c-1.3-0.1-3.3-0.2-4.6-0.2H14.2c-1.3,0-2.3,1-2.3,2.3L11.9,221.6z M55.3,228.6c-1.3,0.1-3.3,0.2-4.6,0.2H9.3c-1.3,0-2.3-1-2.3-2.3
		V65.7c0-1.3,1-2.3,2.3-2.3h37.5c1.3,0,3.3,0.1,4.6,0.2c0,0,11.2,1.1,17.3,3.7c6.1,2.6,11.5,6.3,16,10.8c4.5,4.6,8.1,9.9,10.7,15.9
		c2.6,6.1,4,12.6,4,19.5c0,6.4-1.2,12.4-3.6,17.9c-2,4.6-7.2,10.5-7.2,10.5c-0.8,0.9-0.7,2.4,0.2,3.3c0,0,7.3,6.7,10.1,12.1
		c3.3,6.3,5,13.2,5,20.6c0,7-1.4,13.7-4.1,19.9c-2.7,6.1-6.4,11.5-10.9,16.1c-4.6,4.6-10,8.2-16.1,10.8
		C66.5,227.5,55.3,228.6,55.3,228.6L55.3,228.6z M159.9,185.5c-0.5,1.2,0.2,2.1,1.5,2.1h19.9c1.3,0,1.9-1,1.5-2.1l-10.5-27.8
		c-0.4-1.2-1.2-1.2-1.6,0L159.9,185.5z M189.9,190.4c0.4,1.2-0.2,2.1-1.5,2.1h-34.2c-1.3,0-1.9-1-1.5-2.1l17.9-46.6
		c0.5-1.2,1.2-1.2,1.6,0L189.9,190.4z M201.7,221.7c0.4,1.2,1.8,2.1,3.1,2.1h24.3c1.3,0,1.9-1,1.5-2.1L172.3,70
		c-0.5-1.2-1.2-1.2-1.6,0l-58.5,151.8c-0.5,1.2,0.2,2.1,1.5,2.1h24.3c1.3,0,2.6-1,3.1-2.1l3.3-9.1c0.4-1.2,1.8-2.1,3.1-2.1h47.9
		c1.3,0,2.6,1,3.1,2.1L201.7,221.7z M237.8,226.7c0.5,1.2-0.2,2.1-1.5,2.1h-35c-1.3,0-2.6-1-3.1-2.1l-3.3-9.1
		c-0.4-1.2-1.8-2.1-3.1-2.1h-41c-1.3,0-2.6,1-3.1,2.1l-3.3,9.1c-0.4,1.2-1.8,2.1-3.1,2.1h-35c-1.3,0-1.9-1-1.5-2.1l65.7-170.4
		c0.5-1.2,1.2-1.2,1.6,0L237.8,226.7z M330.9,221.9c0.6,1.1,2.2,2,3.5,2h27.2c1.3,0,1.8-0.9,1.1-2l-48-80c-0.6-1.1-0.6-2.8,0-3.9
		l40.5-67.6c0.6-1.1,0.1-2-1.1-2h-26.9c-1.3,0-2.8,0.9-3.5,2l-42.3,71.5c-0.6,1.1-1.2,0.9-1.2-0.3V70.7c0-1.3-1-2.3-2.3-2.3h-22.4
		c-1.3,0-2.3,1-2.3,2.3v150.9c0,1.3,1,2.3,2.3,2.3h22.4c1.3,0,2.3-1,2.3-2.3v-23.4c0-1.3,0.5-3.2,1.2-4.2l15.1-25.5
		c0.6-1.1,1.7-1.1,2.3,0L330.9,221.9z M371.3,226.9c0.6,1.1,0.1,2-1.1,2h-38.7c-1.3,0-2.8-0.9-3.5-2l-29.3-48.8
		c-0.6-1.1-1.7-1.1-2.3,0l-10.2,17.2c-0.6,1.1-1.2,3-1.2,4.2v27c0,1.3-1,2.3-2.3,2.3h-32.2c-1.3,0-2.3-1-2.3-2.3V65.7
		c0-1.3,1-2.3,2.3-2.3h32.2c1.3,0,2.3,1,2.3,2.3v57.7c0,1.3,0.5,1.4,1.2,0.3l34.6-58.4c0.6-1.1,2.2-2,3.5-2h38.5
		c1.3,0,1.8,0.9,1.1,2L320.4,138c-0.6,1.1-0.6,2.8,0,3.9L371.3,226.9z M397.1,221.6c0,1.3,1,2.3,2.3,2.3h22.4c1.3,0,2.3-1,2.3-2.3
		v-124c0-1.3,1-2.3,2.3-2.3h22.4c1.3,0,2.3-1,2.3-2.3V70.7c0-1.3-1-2.3-2.3-2.3h-76.3c-1.3,0-2.3,1-2.3,2.3V93c0,1.3,1,2.3,2.3,2.3
		h22.4c1.3,0,2.3,1,2.3,2.3L397.1,221.6z M429,226.5c0,1.3-1,2.3-2.3,2.3h-32.2c-1.3,0-2.3-1-2.3-2.3v-124c0-1.3-1-2.3-2.3-2.3
		h-22.4c-1.3,0-2.3-1-2.3-2.3V65.7c0-1.3,1-2.3,2.3-2.3h86.2c1.3,0,2.3,1,2.3,2.3V98c0,1.3-1,2.3-2.3,2.3h-22.4
		c-1.3,0-2.3,1-2.3,2.3L429,226.5z"/>
	<path class="st0" d="M308.8,314.8c-0.2,0.4-0.4,0.8-0.6,1.2c-0.5-0.5-0.9-1-1.1-1.6c-0.1,0-0.1,0-0.2,0c-0.1-0.2-0.3-0.7-0.4-1
		l1.8,0.5l-1.2-1c0.4-1.1,2.4-2.2,1.4-3.5c-2.5,3.3-6.3,5.9-7,10.3c1.6-2.4,4.1-0.8,6.2-0.9c3.2-1.5,2.5-5.7,4.4-8.2
		c-1.1,1.4-2.2,2.8-3.2,4.2C308.9,314.8,308.9,314.8,308.8,314.8L308.8,314.8z M41.9,267.1c-1.6,1.8-3.5,3.6-5.9,3.9
		c1.5-1.2,3.5-1.9,4.6-3.7C40.9,267.2,41.4,267.1,41.9,267.1c-0.3-0.3-0.5-0.5-0.7-0.6c2-3.3,2-7.6,0-10.9c-2.9-5.7-9.8-8.8-16-7.6
		c-6.9,1.3-12.6,6.6-15.2,13.1c-2.5,5.9-2.2,12.8,0.5,18.6c4.2,9.1,12.6,15.6,21.8,18.9c7.6,2.7,15.9,3.9,23.9,2.8
		c11.6-1.8,22.7-6.6,31.9-14c3.9-3.3,7.8-7.1,9-12.2c-1.5,1.6-2.7,3.8-5,4.4c-4,1.2-8,2.9-10.9,6.1c-0.2-0.9-0.4-1.9-0.7-2.8
		c-3.8,4.8-8.2,9.5-13.8,12.3c-8.2,4-17.5,5.5-26.5,4.2c-4.7-0.7-9.2-2.6-13.3-4.9c4,1.6,8.1,3.5,12.5,3.8
		c8.6,1.3,17.4-0.8,25.1-4.5c6.5-3,11.4-8.7,15.2-14.7c5,0.1,10.8-1.2,13.6-5.8c3.4-6.2,4-14.2,0.1-20.3c-1-0.7-1.9,0.3-2.3,1.1
		c-1.1,1.9-0.3,4.1,0,6c-2.9-0.5-5.8-2.1-6.7-5.1c-1.5-3.3-0.7-7,0.7-10.1l-0.9-0.1c-2.4-0.5-4.9-0.6-7.3-0.3
		c-0.2-0.2-0.5-0.5-0.6-0.6l0.4-0.2c3.1-0.5,6.4-0.5,9.4,0.4c4-4.3,10.3-6,15.9-4.5c4,0.9,7.3,3.5,10,6.5c0.8-0.6,1.4-1.6,2.4-1.7
		c1.6,0.3,2.6,1.6,3.7,2.8c0.3-3.1,2.1-5.9,5.1-7c-0.2,2.2,0,4.3,0.7,6.4c1.4-2,2.7-4.4,5.2-5.1c-0.3,1-0.5,2-0.7,3
		c1,1.3,2.5,2.1,3.4,3.5c2.5-2.2,4.4-5.4,7.8-6.4c2.2-0.3,2.2,2.6,2.7,4c2.7-2.6,6.1-5.2,10-4.8c1.2,0.7,1.1,2.4,1.5,3.6
		c1.5-1.8,4.2-2.2,6-0.6c-1.2,0.6-2.9,0.9-2.5,2.6c1.6-0.9,3.1-2,4.7-2.9c-0.8-1.9-0.7-4.7,1.5-5.6c3.1-1.1,6.2,1,7.2,4
		c2.3-1.3,4.9-2.5,7.6-2.7c0.8,0.1,2.1,0.5,2,1.5c-0.3,2-1.4,3.7-2.3,5.5c8.7-3.6,18.6-5,27.8-2.8c6.6,1.6,13,5.6,16.1,11.8
		c2.1,4.1-0.8,9.4,2.8,12.8c-1,1.7-3,1.7-4.6,2c3.1,3.4,4.6,7.9,5.2,12.3c0.8-4.4,2.3-8.9,5.3-12.4c-1.7-0.2-3.5-0.4-4.6-1.8
		c0.8-1.3,2-2.5,1.9-4.1c0-3.2-0.5-6.6,1.2-9.4c2.9-5.3,8.2-8.9,13.9-10.7c9.8-2.9,20.4-1.6,29.7,2.2c-0.9-1.8-2.1-3.6-2.3-5.6
		c0.2-1.2,1.6-1.5,2.6-1.4c2.5,0.3,4.8,1.5,7,2.6c0.9-3.1,4.5-5.1,7.6-3.8c2,1.1,1.7,3.5,1.2,5.4c1.5,1,3,2,4.5,2.9
		c0-0.4,0.1-1.1,0.1-1.5c-0.8-0.3-1.6-0.7-2.4-1c1.7-1.8,4.5-1.2,6,0.5c0.4-1.1,0.2-3.2,1.6-3.5c3.9-0.4,7.2,2.3,9.9,4.8
		c0.4-1.5,0.3-4.2,2.5-4.1c3.4,0.8,5.4,4.1,7.9,6.4c0.9-1.2,2.2-2.1,3.3-3.1c0.6-1.1-0.4-2.2-0.6-3.2c2.6,0.5,3.8,3.1,5.3,5
		c0.6-2.1,1-4.2,0.6-6.3c2.9,1.2,5,3.9,5.1,7c1.1-1.3,2.3-2.5,4-2.9c0.7,0.6,1.3,1.2,2,1.8c2.6-2.7,5.6-5.2,9.2-6.3
		c5.8-1.9,12.6-0.3,16.7,4.3c5.3-1.3,11.2-0.8,15.7,2.3c-2,0.4-4.4,1-5.1,3.2c-1.2,2.8,0.6,5.7,2.7,7.5c1.2-4.2,3.1-8.3,6.6-11
		c4.5-3.8,11.5-4.3,16.5-1.2c2.3,1.4,3.5,4,3.4,6.7c2.9-4.8,7.7-8.4,13.2-9.7c8.7-1.9,18.1,1,24.5,7.2c5,5.2,7.6,12.3,8.5,19.4
		c1,9.1-3.1,17.7-8.2,24.9c-9.6,12.8-25.7,19-41.2,19.8c-5.2,0.5-10.9,0.4-15.6,3.2c-1.7,0.8-0.2,3.6-2.2,3.9
		c-3.5,0.5-7.9-0.7-9.4-4.3c-1.6,1.3-3.4,3-5.6,2.6c-0.4-0.5-0.8-1-1.1-1.6c-3.1,1.1-7.1-0.3-9.2,2.9c-1-3.7-0.2-7.7,2.3-10.7
		c-0.8-0.8-1.7-1.5-2.2-2.5c-0.6-1.5,0.3-3,0.8-4.4c-1.9-0.5-3.8-0.9-5.7-1.6c0.9,2.3,1.6,4.9,1.3,7.4c-0.5,2.5,2,4.6,1,7.1
		c-1,3.3-4.7,4.5-7.8,5.1c-1.4,0.4-2.8-0.2-4.1-0.8c1.6-0.2,3.8,0.2,4.5-1.6c-0.5-1.8-2.1-3.2-2-5.2c-0.5-0.4-1-0.8-1.6-1.3
		c0.8-1.1,1.2-2.3,1.6-3.5c-2.1-1.3-4.7-2.5-7.1-1.4c-3.1,1.7-4.6,5.2-5.4,8.6c-0.7,3.7-4.2,5.6-6.1,8.5c-1,1.7-3.5,2.7-5.2,1.6
		c-3.4-2.3-5.9-6.4-4.8-10.6c-1.6,2.3-3.2,5.1-5.9,6.1c-1.3,0.3-1.4-1.4-1.8-2.2c-0.7,0.7-1.4,1.4-2.3,1.9c-1.3,0-2.6-0.4-3.9-0.3
		c-1.2,0.3-1.9,1.5-2.7,2.3c-0.9-3,0.1-6.1,1.9-8.4c-3.5,1.5-7.9,2.9-11.4,0.5c-2.3-1.4-3.6-4-3-6.7c-1.4-2-2.6-4.4-2.1-6.9
		c0.4-3,3.9-5.3,6.8-4.5c0.1,1.6-1.2,3-1,4.6c0.4,3.6,3.9,6.5,7.5,6.2c2.4-0.3,4.6-1.4,6.7-2.6c-2,0-4.1-0.1-5.7-1.4
		c-1.6-1-2-3-2.4-4.7c1.1,0.9,2.2,1.7,3.6,2.2c1-0.6,0.9-1.8,1.3-2.8c-0.5-1.8-0.4-4.5,1.8-4.9c2.1-0.9,2.4,2.6,4.5,2.3
		c2.8-0.2,5.3-1.6,7.8-2.9c3.8-1.9,7.9-2.7,12-3.4c-3.4-1.9-8-2.8-9.7-6.7c-3.7-3.1-7.8-5.7-11.9-8.2c3.4,4.2,6.8,9.5,5.5,15.2
		c-0.6,2-1.6,4.8-4.2,4.8c-0.2-1.8,0-3.7-1-5.2c-0.8-1.5-2.3-3-1.8-4.8c0.6-2.6-0.2-5.3-1.6-7.5c-0.3,1.2,0.5,3-0.9,3.6
		c-2,0.1-3.8-0.8-5.7-1.3c1.2,3.2,1.7,7.4-1,10.1c-2.5,2.9-7.6,4.5-10.6,1.6c-0.5-2.5,2.2-1.3,3.6-1.6c1.2-1.6-1.5-3.2-1.3-5
		c-0.6-0.8-1.3-1.5-1.6-2.5c1-0.8,1.8-1.7,1.7-3.1c-1.4-1.6-3.3-2.8-5.2-3.6c-0.8,2.6-4.6,2.3-5.9,0.3c-0.3,2.6,1.4,4.9,3.9,5.5
		c1.3-0.3,2.6-1.5,4-1.1c0.8,5-5,8.8-9.6,7.8c2.5,3.1,3.7,7.2,3,11.2c-1,6.1-5.1,11.2-10.1,14.6c-8.2,5.3-19.1,5.6-27.8,1.3
		c-8.7-4.4-14.6-13.5-16.1-23.1c-0.9,7.8-5.2,15.2-11.3,20.1c-10.1,8.2-26.3,8.2-35.8-1c-3.3-3.2-6-7.3-6.7-11.9
		c-0.7-3.9,0.7-8,2.9-11.1c-2.8,0.2-5.8-0.4-7.7-2.6c-1.3-1.5-2.6-3.6-1.7-5.7c1.7,0.4,3.6,2,5.4,0.9c1.7-0.8,2.3-2.7,2.6-4.4
		c-1.8,1.2-5.1,1.9-6.1-0.6c-1.8,1.1-4.2,1.9-5,4c-0.3,1.3,1,1.9,1.7,2.7c-0.3,0.9-0.9,1.6-1.5,2.4c-0.4,1.7-1.6,3.2-1.9,4.9
		c1.1,0.7,2.3,0.2,3.4-0.1c0.6,0.8,1,2-0.1,2.6c-5.1,2.8-12.4-2-11.9-7.8c0-1.6,0.6-3,1-4.5c-2,0.6-4,1.3-6.1,1.4
		c-0.4-1.3-0.6-2.6-0.8-3.9c-0.5,1.5-1.3,3-1.5,4.6c-0.3,2,0.9,4.2-0.5,6c-1.2,1.6-2.1,3.4-2,5.5c0.2,0.8-0.5,2.3-1.5,1.5
		c-2.2-1.6-3.1-4.6-3.1-7.3c0-4.8,2.9-8.8,5.6-12.4c-3.9,2.3-7.7,4.9-11.3,7.6c-1.2,0.8-1.3,2.5-2.6,3.2c-2.4,1.6-5.1,2.8-7.7,4
		c4.4,0.8,8.8,1.6,12.8,3.8c2.5,1.2,5.3,2.8,8.2,2.3c1.1-1,2-2.9,3.8-2c2.8,1.5,0.9,5.1,1.9,7.5c1.7,0.1,3-1.1,4.2-2
		c-0.3,1.7-0.8,3.5-2.3,4.6c-1.7,1.4-3.9,1.4-6,1.4c1.9,1,3.8,2.1,6,2.5c3.5,0.7,7.3-1.9,8.1-5.4c0.4-1.9-0.7-3.7-1-5.5
		c2.8-0.3,6,1.2,6.8,4.1c0.8,2.7-0.5,5.4-2,7.5c1,3.4-1.8,6.6-4.9,7.6c-3.2,0.9-6.5-0.2-9.5-1.4c0.8,1.2,1.5,2.4,2.1,3.7
		c-0.3,0.5-0.6,0.9-1,1.4c0-3.6-3.4-5.5-5.2-8.2c2.2,0.3,3.7,2.2,5.9,2.8c3.3,1.3,7.4,1.6,10.4-0.8c1.4-1,1.7-2.7,1.7-4.3
		c-1.6,1.1-3.3,2.1-5.1,2.7c3.5-1.8,6.8-4.8,7.2-9.1c0.2-2.9-2.5-5-5.1-5.4c2.7,2.6,2.2,7-0.4,9.4c-3.6,3.7-10,3-13.8,0
		c-5.1-4-10.1-8.1-16.1-10.5c-6.7-3.1-14.8-3.3-21.5-0.1c-4,2-6.7,6.1-7.8,10.5c-0.4,1.6,0.1,3.2,0.3,4.7c0.1-3.9,1.6-7.7,4.1-10.7
		c2.5-2.8,6.4-3.3,9.9-4.1c0.2-0.1,0.5-0.4,0.7-0.5c4.6-0.2,8.8,1.7,13.3,2c3.1,0.9,6,2.4,8.7,4.2c3,2.3,5.1,5.5,7.3,8.5l-1.3,0
		c0.5,0.8,1.1,1.7,1.6,2.5c0.5,0.7,1.1,1.4,1.6,2c-0.5,0.5-1.2,1.2-1.9,0.6c-0.2,0.3-0.7,0.8-0.9,1l1.4-3.3l-1.8,2
		c-0.9-1.5-1.9-3.1-3.1-4.4c-0.2,2.2,3.2,4.1,2.3,6.3c0.8,0.7,1.5,1.6,2.6,2c1.8-0.3,4-1.3,5.4,0.4c0.4-0.3,0.8-0.5,1.2-0.7
		c-0.1,1.2-0.3,2.4-0.5,3.6c-0.9-0.8-1.7-2-2.9-2.2c-1.3,0-2.5,0.4-3.8,0.2c-0.8-0.5-1.5-1.2-2.2-1.8c-0.5,1-0.7,2.8-2.3,2.1
		c-2.3-1.3-3.7-3.6-5.3-5.6c0.8,4.1-1.7,8.1-5.1,10.2c-1.8,1-4.1,0-5.1-1.7c-1.8-2.7-4.9-4.4-5.9-7.7c-0.7-3.1-1.8-6.5-4.4-8.5
		c-2.3-2-6-1.2-8.1,0.7c0,1.3,0.8,2.4,1.4,3.5c-0.5,0.4-1.1,0.8-1.6,1.3c0,2-1.4,3.4-2.1,5.2c1.1,1.6,3,1.5,4.7,1.4
		c-2.2,1.8-5.1,0.9-7.5,0.1c-2.3-0.8-4.6-2.8-4.5-5.4c-0.2-1.9,1.4-3.4,1.1-5.3c-0.3-2.7,0.2-5.4,1.3-7.9c-1.8,0.6-3.7,1.1-5.6,1.5
		c0.4,1.4,1.3,2.9,0.7,4.4c-0.4,1.1-1.4,1.8-2.1,2.6c2.4,2.9,3.3,6.8,2.3,10.5c-2.3-3-6.2-1.7-9.2-2.8c-0.3,0.5-0.6,1.1-0.9,1.6
		c-2.3,0.4-4.2-1.2-5.8-2.7c-1.5,3.5-5.8,4.8-9.3,4.4c-2,0-0.8-2.4-1.8-3.5c-1-1-2.3-1.5-3.6-1.9c-7.2-2.1-14.7-1.3-22-2.9
		c-12-2.4-23.7-8.2-31.3-18.1c-5-6.8-9-14.9-8.8-23.5c0.5-7.6,3.1-15.2,8.3-20.9c5.9-6,14.5-9.1,22.8-8c6.2,0.7,12,4.5,15.2,10
		c0.1-2.5,1.2-5.1,3.4-6.5c5.2-3.3,12.7-2.7,17.2,1.7c3.1,2.7,5,6.6,5.9,10.6c2-1.9,4-4.8,2.7-7.6c-0.7-2.2-3.1-2.8-5.1-3.1
		c0.9-0.5,1.7-1.1,2.6-1.5l1.1-0.5c-0.1,0.5-0.3,1.4-0.5,1.9c0.5,0,1.4,0,1.9,0c2.4,1.2,4.3,3.8,3.7,6.6c-0.5,3.2-3.5,5.2-6.2,6.4
		c-2.6,1.2-5.8,1.1-7.8,3.3c-1.7,1.6-2.4,3.9-2.8,6.2c-1,4.7-2,9.4-2.6,14.1c1.5-4,2.1-8.5,4.6-12.1c1.3-2.1,3.8-3.2,4.8-5.4
		c0.8,1.4,1.3,3,1.4,4.6c1.5-1.9,3.6-4,6.2-3.3c1.4,0.2,2.2,1.3,3,2.3c1.4,1,3.3,2.1,3.1,4.1c0.2,1.6-1.2,2.5-2.1,3.6
		c-0.5-1.8-1.1-4.1-3.3-4.4c-2.6-0.8-4.4,1.7-5.9,3.4c2.1-0.8,4.4-0.6,6.1,0.9c-1,0.1-2,0.2-3.1,0.3c0.6,1.7,2.4,3.4,0.9,5.2
		c-1,0-2.3-0.9-3.2,0.1c-1.7,1.6-2.7,3.8-4.2,5.5c-3.4,4-8.5,7.1-13.9,6.6c-3,0.2-5.9,1.8-9,1.6c-9.3-0.2-18.6-3.9-25.6-10
		c-7.8-6.8-10.1-19.4-4.7-28.3c3-5.1,8.9-8.6,14.9-7.8c4.2,0.4,8.4,2.6,10.3,6.6c1.4,3.1,2,6.9,0.4,10c-1,2.1-3.3,3.1-5.1,4.4
		c-0.6-0.1-1.7-0.2-2.3-0.2c1,0.4,1.9,0.9,2.9,1.3c-3.3-0.2-7.4-1.1-8.6-4.7c-0.7-1.5,0-3,1.1-4.1c0.6,1.2,0.5,3.2,2.1,3.7
		c2.1,0.6,4.8-0.5,5.2-2.8c0.8-3.4-2-6.8-5.3-7.4c-1.8-0.5-3.7,0.3-5.2,1.2c-0.3-0.3-0.6-0.6-0.9-0.9c-1.8,1.2-3.5,2.8-4.3,5
		c-2.4,6.1,0.4,13.7,6.1,17c5.4,3.2,12.2,3.3,18.1,1.4c2.2-0.7,5-1.9,5.4-4.5c-0.4-1.6-2.1-2-3.4-2.6c-3.6,3.9-8.9,6.3-14.3,5.5
		c-6.9-0.6-12.3-7.8-11-14.6c0.2-2.3,1.4-4.3,2.6-6.2c0.3,0.3,0.6,0.5,0.9,0.8c-4.3,4.5-2.5,12.2,2.2,15.6c3.7,3.1,9.2,3.4,13.5,1.2
		c6.4-2.9,9.7-10.7,7.9-17.4c-1.8-6.8-7.7-12.1-14.3-14.1c-7-2.1-14.9-0.1-20.3,4.6c-5.5,4.9-9,11.9-9.7,19.3
		c-0.8,9.8,4,19.2,10.7,26c6.7,7,15.7,11.7,25.1,13.6c14.6,3.2,29.8,0.6,43.9-3.5c4.5-1.4,9.5-2.1,13.1-5.5
		c3.5-2.9,3.8-8.1,7.6-10.6c-1.9-0.3-3.9-0.4-5.8-0.4c3.7-2.5,7.8-5,9.8-9.2c-5,3.9-9.9,8-15.4,11.2c-2.8,1.5-5.3,3.4-8.1,4.9
		c-10.4,6.2-22.6,9.7-34.8,9.4c-13.2-0.1-26.3-5.8-35-15.7c-4.6-5.1-7.6-11.9-7.2-18.9c0-11,9-21.7,20.2-22.2
		c8.1-0.5,15.6,6.6,15.7,14.7c-0.1,2-0.8,3.9-1.5,5.8C42,267.2,41.9,267.2,41.9,267.1L41.9,267.1z M328.1,300
		c-5.6,1.8-10.6,5.8-13.4,11.1c-0.3-0.5-0.6-1-0.8-1.5l0,1c-1.7,1.3-2.5,3.3-3.6,5.1c0.9,1.2,0.9,2.8,1.2,4.2
		c5.6-3.6,6.5-11.3,11.7-15.2c1.1-1,4.3-1.6,4.1,0.7c0.2,1.7-1.7,1.9-2.8,2.5c-3.5,1.2-5.8,4.9-6.1,8.6c-0.2,3.3,2.1,7.1,5.6,7.5
		c1.1-0.2,1.9-0.9,2.8-1.6c-2.8-3.5-3.3-8.6-1-12.5c1.6-3.4,5.1-5,7.2-7.9c3.6-1.9,8.1-1.2,11.7,0.5c3.2,1.6,4.4,5.1,5.6,8.2
		c-0.3-5-3.1-10.4-8.2-11.8C337.5,298.3,332.6,298.5,328.1,300L328.1,300z M101,310.2c0.7-3,2.2-6,5-7.5c3.7-2,8.3-2.4,12.1-0.6
		c0.4,1.5,1.9,2.2,3,3.2c2.6,2.2,4.9,5.2,5.3,8.7c0.6,3-0.5,6-2.2,8.4c1,1,2.4,2.1,3.8,1.5c4-1.5,5.6-6.8,3.7-10.6
		c-1.1-3-3.8-5-6.8-6c-1.5-0.4-1.9-2.4-0.7-3.4c2.7-0.5,4.9,1.7,6.3,3.8c2.8,4.1,4.5,9.4,8.9,12.3c0.3-1.6,0.5-3.3,1-4.9
		c-1.3-1.7-2.3-3.6-3.7-5.2c0.7,2.1,1.5,4.1,2.2,6.1c-2.1-4.2-4.4-8.4-8-11.4c-5.3-4.7-12.6-6.3-19.6-5.8
		C105.3,298.5,100.6,304.5,101,310.2L101,310.2z M317.4,298.3c-4.5,2.5-8.1,6.1-12.3,8.9c-2.9,1.5-6.5,1.9-9.6,0.7
		c-4.2-1.6-6.8-7.8-3-11.3c-2,0.5-4.2,1.4-4.9,3.5c-0.9,2.4,0.4,4.9,1.7,6.8c1.1,1.9,3.3,2.7,5,4c-1.7-0.6-3.2-1.6-4.7-2.6
		c-0.7,2.9,2,5.2,4.6,5.7c5.2,1.1,10.3-1.7,14-5.2c2.3-2.7,4.2-5.8,7.1-7.8c3.2-2.1,6.9-3.4,10.5-4.7l-0.6,0.9
		c3.8-1.3,7.7-2.1,11.7-2.2c1.8,1.4,4.4,1,6.5,2c5.7,1.8,7.8,8.1,8.7,13.4c0.7-3.8-0.4-7.7-2.7-10.8c-3.1-4.8-9-6.5-14.4-6.8
		C328.7,292.7,322.7,295.2,317.4,298.3L317.4,298.3z M183.2,281.6c-2.5,1.7-4.3,4.5-7.3,5.2c-1.9,2.7-3.3,6-3.2,9.4
		c0.4,6.6,4.7,12.4,10.3,15.7c3.9,2.8,8.8,3.9,13.6,3.8c7.3-0.3,14.2-3.5,19.5-8.4c0.3-0.5,0.8-1.6,1.1-2.2
		c-3.8,3.8-8.2,7.4-13.5,8.7c-6.3,1.7-13,0.3-18.7-2.6c-5.4-2.8-9.6-8.7-8.9-14.9c0.5-4.8,3.7-8.9,7.2-11.9c2.6-2.1,6.2-0.9,8.9,0.3
		C190.5,281.6,186.4,280.1,183.2,281.6L183.2,281.6z M222.6,275.3c-0.3,1.1-0.5,2.2-0.8,3.3c2.2,6.4,1.5,13.8-2,19.6
		c-2.9,5.2-7.8,8.9-13.2,11.1c4-0.1,8.1-2.1,10.6-5.3c0.3-0.6,1,0,1.4,0.1c1.3-2.4,2.7-4.7,3.7-7.3
		C224.9,290,224.8,282.3,222.6,275.3z M190.7,272.5c-0.3,1.9-1.2,3.7-1.6,5.6c0.5,1.3,0.3,3.1,1.7,3.8c1.7,1,2.1,3,2.5,4.8
		c-1.4-0.8-2.9-1.7-4.6-1.9c-1.3-0.1-2.9,0.9-2.6,2.3c0.9,2,2.5,3.6,3.2,5.7c0.6-2.5,2.5-4.8,5.3-4.8c2.6-0.2,4.6,1.9,5.6,4.1
		c-1.8,0.2-4.1,1.4-3.6,3.6c0.8,2.3,3.5,3.4,5.8,3.1c5.4-0.6,10.7-3.9,12.8-9.1c2-4.6,1.4-9.8-0.4-14.3c-2.3,6.2-8.6,10.8-15.3,10.6
		c-5.8-0.3-10.1-7.8-6.3-12.6C192.4,273.1,191.5,272.8,190.7,272.5L190.7,272.5z M257.7,274c1.1,0.7,1.3,2.2,1.4,3.4
		c0.1,4.5-3.8,8.6-8.3,8.6c-5.1-0.1-10.2-2.9-13-7.3c-0.6-0.9-1-2-1.8-2.9c-2.6,5.9-2,13.6,2.7,18.4c2.7,2.7,6.5,4.3,10.2,4.7
		c2.4,0.2,5.3-1.3,5.5-3.9c-0.3-1.9-2.1-2.6-3.8-2.8c1.1-2.4,3.4-4.6,6.2-4c2.4,0.2,3.9,2.4,4.7,4.5c0.9-2.1,2.7-3.8,3.3-6
		c-1.3-3-5-1.4-7,0c0-0.5,0-1.5,0-2c3-0.4,6.2-2.6,9.2-0.6c3.9,3,7.1,7.3,7.8,12.3c0.6,4.6-1.7,9-4.8,12.1c-3.8,3.4-8.9,5.2-13.8,6
		c-8.4,1.3-17.2-2.8-22.2-9.5c2.9,2.4,6.4,4.6,10.3,4.6c-1.7-1-3.6-1.7-5.3-2.8c-6.9-4.6-11.6-12.8-11-21.3
		c-0.1-3.4,1.6-6.7,0.7-10.1c-4.8,12.7-0.2,28.8,11.5,36.1c7,4.3,16.1,5.9,23.9,2.9c6.2-2.7,12-7.6,13.7-14.5
		c1.6-4.4,0-9.3-2.7-12.9c-3-0.8-4.8-3.3-7.1-5.1c-2.5-1.2-6.3-0.7-8,1.7c-0.3-0.3-0.6-0.5-1-0.8c2-0.8,2.6-2.7,2.9-4.6
		c-0.4-1.9-1.3-3.7-1.6-5.7C259.3,272.9,258.5,273.4,257.7,274L257.7,274z M283.3,273.2c2.3,1.1,4.9,2,6.4,4.2
		c0.9,1.5,0.2,3.3-1,4.4c1,0.6,1.9,1.3,1.4,2.6c0.7,1.4,2,2.8,1.5,4.5c-1,1.3-2.8,0.8-4.2,1.1c4.5,2.6,10-2,9.8-6.8
		c0.2-4.7-3.1-8.6-6.8-11c2.8,1.2,5.2,3.1,7.2,5.4c1.9,0.1,3.8,0.8,5.7,1c0.4-1.5,0.5-3.1,0.4-4.7c3.1,2.8,4.7,7.1,3.7,11.2
		c1.3,2.3,2.9,4.6,2.7,7.4c0.9-2.1,1.5-4.4,1.4-6.7c0.2-5.7-3.5-10.9-7.9-14.1c-4.9-2.5-10.4-4.3-15.9-3.4
		C285.2,268.6,282.9,270.6,283.3,273.2L283.3,273.2z M147.4,271.7c-3,2.1-5.5,5.1-7,8.4c-1.8,4-1.2,8.6,0.3,12.5
		c0.1-2.3,0.7-4.4,2.2-6.2c1.1-1.2,0.4-3,0.4-4.4c-0.1-3.2,1.9-6,4-8.2c0.1,1.6-0.3,3.3,0.6,4.7c1.8,0.1,3.6-0.6,5.4-0.9
		c2.3-2,4.4-4.1,7.3-5.3c-2,1.7-4.3,3.3-5.5,5.8c-1.3,2.9-1.8,6.6,0,9.4c1.7,2.9,5.5,4.3,8.6,2.7c-1.4-0.2-2.9-0.1-4.1-0.9
		c-0.7-1.8,0.7-3.3,1.5-4.7c-0.1-0.4-0.2-1.1-0.3-1.5c0.5-0.4,1.1-0.8,1.7-1.1c-1.1-1-1.9-2.5-1.3-4c1.2-2.6,4.2-3.6,6.6-4.7
		c0.5-2.4-1.6-4.4-3.8-4.8C158.1,267.3,152.4,269.2,147.4,271.7L147.4,271.7z M13.7,274.7c2.4,7.5,8.7,13.1,15.8,16.2
		c6.5,2.9,14.2,4.6,21.1,2c-1.3-0.6-2.3-2.2-3.9-1.8c-7.4,1.6-15.3-0.5-21.7-4.5c-6.5-4.1-11.2-11-12-18.7
		C12.4,270.2,13.1,272.6,13.7,274.7z M436.8,272.9c-1.9,6.1-6.5,11.2-11.9,14.4c-6.5,3.7-14.3,5.6-21.6,3.7c-1,0.7-2,1.3-3,2
		c4.3,1.6,9.1,1.5,13.5,0.5c8.6-2.1,17.1-6.7,21.6-14.7c2.3-3.9,2.9-8.6,2.9-13.1C437.6,268.1,437.6,270.6,436.8,272.9z
		 M246.4,264.1c-2.1,1.7-4.4,3.3-6.5,5.1c0.9,4.6,3.7,9.2,8.4,10.6c2.4,0.9,5.2-0.6,5.8-3c0.8-1.8,0.1-3.7-0.5-5.4
		c1.5,0.5,2.9,1,4.1,2.1c-0.7-1.6-0.3-3.2,0.2-4.8c-2.7,0.6-5.8,1.2-8.3-0.3c-1.3-0.7-1.7-2.1-2.2-3.4
		C247.1,264.7,246.7,264.4,246.4,264.1L246.4,264.1z M203.8,264.5c-0.7,1.4-1,3.2-2.6,4c-2.5,1.5-5.6,0.9-8.2,0.3
		c0.5,1.5,0.8,2.9,0.5,4.5c1.1-0.8,2.4-1.4,3.6-1.8c-0.7,2.1-1.2,4.6,0.1,6.6c1.2,2.2,4.2,2.5,6.3,1.4c4.1-1.8,6.4-6.1,7.2-10.3
		c-2.1-1.7-4.1-3.4-6.4-4.9C204.4,264.3,204,264.4,203.8,264.5L203.8,264.5z M388.8,265.1c-0.4,0.9,0.1,1.9,1.1,2.2
		c0.8-1,1.3-2.3,2-3.4c1,5.2,1,10.5,2.2,15.6c0-5.8-0.2-11.5-0.4-17.3c1.6,1,3.5,0.7,4.7-0.8c-1-0.8-1.8-2.2-3.3-1.9
		C392.1,259.7,389.5,262.3,388.8,265.1L388.8,265.1z M267,272.2c-1.2,5.9,3,12,8.5,13.7c4.1,1.3,9.2-1.3,9.9-5.7
		c-1.3,0.7-2.6,2-4.2,1.7c-2.1-0.3-4.1-2-4.3-4.2c-0.4-1.7,0.4-3.2,1.1-4.7c0.8,1.7,2.3,3,4.4,2.4c-0.8-1-2.2-1.8-1.9-3.3
		c0.6-3.1,3.8-4.7,6.6-5.3c4.9-0.6,10.1-0.4,14.4,2.1c0.5-0.2,1.4-0.5,1.9-0.6c-6.5-3.8-13.1-8.3-20.8-8.6
		C275.3,259.3,268.2,265,267,272.2L267,272.2z M147.5,268.4c0.4,0.2,1.3,0.5,1.7,0.7c4.4-2.4,9.5-2.8,14.3-2.2
		c2.7,0.5,5.7,1.9,6.7,4.6c0.6,1.7-0.7,3-1.8,4c2,0.4,3.5-0.7,4.3-2.5c2,2.6,1.7,6.8-1.4,8.4c-2.1,1.3-4.3,0-6-1.4
		c0.6,3.7,4.2,6.3,7.8,6.2c5.7-0.4,10.5-5.8,10.9-11.4c0.2-8.1-7.3-15.3-15.3-15C160.9,259.9,154.1,264.7,147.5,268.4L147.5,268.4z
		 M52.8,261.8c1.3,1.2,2.9,1.2,4.4,0.5c-0.2,5.6-0.6,11.2,0,16.8c0.6-5.1,1.1-10.1,1.8-15.2c0.7,1.1,1.3,2.3,2,3.5
		c1-0.5,1.5-1.3,1.1-2.4c-0.7-2.7-3.1-4.9-5.7-5.5C54.7,259.1,53,260.2,52.8,261.8L52.8,261.8z M348,265c-0.5,5.4,2.2,10.5,5.5,14.6
		c-0.6-2.5-0.7-5.1,0.6-7.4c-1.2-4.3-1.7-8.8-1-13.2C349.8,258.7,348.2,262.2,348,265L348,265z M97.7,259.1c0.7,5.1,0.3,10.5-2,15.2
		c0.4-0.4,1.2-1.3,1.5-1.7c0.7,2.3,0.7,4.7,0.1,7.1c3.3-3.8,5.7-8.7,5.6-13.9C102.8,262.8,101.4,258.6,97.7,259.1z M247.7,263.3
		c0.2,0.4,0.6,1.3,0.8,1.8c1.4,0.6,2.8,1.2,4.3,1.1c2.6-0.1,4.7-1.7,6.9-2.9c3.1-1.9,6.4-3.3,9.7-4.8
		C261.9,258.1,254.3,259.6,247.7,263.3L247.7,263.3z M180.9,258.3c4.9,1.7,9.4,4.5,14,6.9c2.6,1.5,6.5,1.2,8.4-1.3l0-0.4
		C196.6,259.4,188.6,258.3,180.9,258.3L180.9,258.3z M48.8,257.3c1.7,4.9,0.8,10.5-2.2,14.7c2.2-2.2,5-4.2,8.2-4.4
		c-0.4-2.3-1.8-4.1-3.2-5.9c0.2-1.6,1.7-2.6,3.2-2.8C52.8,258.5,50.5,258.9,48.8,257.3z M252.5,255.5c-5.3,1.8-11.5,5.2-12.1,11.4
		c3.8-3.2,8.2-5.6,12.9-7.1c10.1-3.3,21-3.4,31.4-2.1C274.8,252.9,263,252.7,252.5,255.5L252.5,255.5z M166,257.7
		c8.2-1,16.7-1.2,24.9,0.4c7.2,1.3,14,4.2,19.7,8.8c-0.8-6.1-6.7-9.6-12-11.3C187.9,252.7,176.1,252.9,166,257.7L166,257.7z
		 M243.1,258.6c12.5-7.4,28-7.3,41.5-2.9c-6.7-3.4-14-5.4-21.5-5.9C255.6,249.5,247.4,252.1,243.1,258.6z M167.2,255.3
		c7.5-2,15.2-3.3,23-2.4c6.2,0.5,12.2,2.7,17.6,5.7c-4.6-6.7-13.2-9.3-20.9-8.7C180.1,250.4,173.3,252.1,167.2,255.3L167.2,255.3z
		 M391.1,248.7c-4,1.6-6.7,5.7-7.5,9.8c2.3,1,3.5,3.2,4.5,5.4c1.2-2.4,3.1-4.6,5.9-5.1c2.3-0.5,4.5,0.8,5.4,3
		c-1.7,1.6-2.8,3.6-3.3,5.9c3.6,0.1,6.7,2.5,8.9,5.2c-1.5,0.4-3.5,1.3-3.3,3.2c1.1,2.6,4,3.6,6.5,4.3c6,1.6,12.7,1.2,17.9-2.4
		c5.1-3.5,7.4-10.8,5-16.5c-0.8-2.1-2.6-3.5-4.3-4.8c1.5,2.2,3.4,4.4,3.5,7.3c0.8,4.8-1.6,9.9-5.6,12.6c-6.3,4-15.2,1.9-19.7-3.8
		c-3.5-4.1-4.5-10.1-2.7-15.3c-2.1,1.7-5.3,2-7.1-0.3c1.5-0.7,3.4-1.3,3.9-3.1C399.4,250.1,394.4,247.3,391.1,248.7L391.1,248.7z
		 M52.6,255.1c0.6,1.3,5,1.8,1.7,3.1c1.7,0.7,3.6,0.6,5.1,1.7c1.6,1,2.5,2.6,3.3,4.2c0.8-2.3,2.2-4.5,4.5-5.5
		c-0.9-4.4-3.8-8.9-8.3-10.1C55.5,247.5,50.3,251.4,52.6,255.1z M402.5,261.2c0,4.2,1.6,8.4,4.6,11.4c2.8,2.7,6.8,4.3,10.7,4
		c5.3-0.3,10.2-4.4,11.1-9.7c0.6-2.9,0-6.2-2-8.4c-1.8-1.8-4.7-2.9-7.2-1.8c-2.9,0.9-5,4.1-4.3,7.1c0.5,2.7,4.6,4.1,6.4,1.9
		c0.3-0.9,0.5-1.8,0.7-2.8c2,1.3,1.7,4.1,0.3,5.8c-1.7,2.3-4.7,2.7-7.4,2.9c0.7-0.4,1.3-0.9,2-1.3c-0.5,0-1.4,0.1-1.8,0.2
		c-2-1.3-4.4-2.6-5.3-5c-1.4-3.7-0.4-8.1,1.9-11.3c5-6.1,15-6.2,20.5-0.8c8.9,8,8,23.4-0.4,31.4c-6.4,6.1-15,9.8-23.8,10.8
		c-3.7,0.5-7.4-0.3-10.8-1.5c-5.3,0.7-10.4-1.8-14-5.6c-2.3-2.1-3.3-5.2-5.9-7.1c-0.5,0.1-1.5,0.4-2,0.5c-2.3-1.3,0.2-3.6,0.5-5.3
		c-1-0.1-2-0.1-2.9-0.1c1.6-1.8,3.9-1.8,6-1c-1.4-1.9-3.4-4.4-6-3.3c-2,0.4-2.6,2.5-2.9,4.3c-1.2-0.8-2.4-1.9-2.3-3.5
		c-0.1-2.1,1.9-3.2,3.4-4.2c0.6-1,1.3-1.9,2.4-2.1c2.8-1,5.1,1.4,6.7,3.4c-0.2-1.7,0.3-3.4,1.3-4.9c0.1,2.4,3,2.4,3.7,4.4
		c3.5,3.4,3.8,8.8,5.6,13.1c-0.7-5.3-1.8-10.5-3-15.7c-0.6-3.2-3.2-6-6.4-6.6c-4-1-8.6-2.7-10-7c-1-3.8,2-7.5,5.8-7.8
		c-3.8-1.4-8-1.7-11.8-0.5c1.6,2.9,2.3,6.4,1,9.5c-0.9,3-3.8,5.2-6.9,5.4c0.5-2.3,1.2-5.4-1-7.1c-0.9-0.6-1.6,0.1-1.9,0.9
		c-1.4,3.1-2.7,6.5-2.2,10c0.5,4.4,1.6,9.2,5.1,12.1c3.2,2.3,7.3,3.2,11.2,3c3.8,5.9,8.6,11.5,15.1,14.6c7.8,3.8,16.6,5.9,25.2,4.6
		c4.4-0.2,8.3-2.1,12.3-3.6c-11.7,7-26.7,6.7-38.8,1c-5.9-2.8-10.6-7.6-14.6-12.7c-0.2,1-0.4,1.9-0.6,2.9c-2.8-3.2-6.8-4.9-10.7-6.1
		c-2.3-0.6-3.5-2.7-5.1-4.3c0.7,3.3,2.8,6.2,5.1,8.6c4.8,4.9,10.7,8.7,16.9,11.7c9.4,4.4,19.9,7.3,30.4,5.9
		c9.7-1.1,19.4-4.7,26.7-11.5c4.7-4.4,8.4-10.2,9.4-16.7c1.3-8.3-2.4-17.3-9.3-22.2c-3.6-2.5-8.2-4-12.6-3.1c-4,0.7-7.7,2.9-9.9,6.3
		c-2,3-3.1,7-1.5,10.4c-0.3,0-0.6,0-1,0c-2-7.4,3.1-15.4,10.3-17.4c5.8-1.8,12.2,0.4,16.7,4.2c6,4.9,9,13.1,8.2,20.8
		c-0.5,6.5-4,12.5-8.5,17.1c-7.5,7.6-17.5,12.6-28.1,13.8c-12.9,1.6-26.2-1.3-37.6-7.4c-4-2-7.5-4.7-11.3-6.8
		c-5.3-3.2-10-7.2-14.8-10.9c1.9,4.3,6.1,6.6,9.7,9.3c-2,0-4-0.1-5.9,0.5c2.7,1.3,3.5,4.3,4.9,6.7c1.9,3.8,5.7,6.5,9.8,7.5
		c12.2,3.7,24.7,7,37.5,6.6c11.8-0.1,23.9-3.4,33.2-10.9c6.8-5.5,12.5-12.9,14.5-21.6c2.4-10-1.4-21.1-9.1-27.8
		c-5-4.4-12-6.3-18.5-5.1C410.7,245.1,402.9,252.2,402.5,261.2L402.5,261.2z M335.2,263.4c1.7,5.8,6,10.4,10.3,14.4
		c4.3,3.8,8.9,7.2,13.9,9.9c-6.7-5-12.7-12.1-13.6-20.7c-0.3-3.5,0.6-7.9,4-9.7c1.5-0.9,3.2-0.1,4.5,0.9c-0.2-0.9-0.1-2-0.7-2.7
		c-0.7-1.2-2.3-0.8-3.4-1.1c1.7-3.6,6.7-4.2,9.9-2.3c2,1.8,1.5,4.7,1.1,7c4.8-2.3,6.6-9.2,3.5-13.5c-2.8-4-8-5.9-12.8-5.7
		C341,241.1,332.6,252.8,335.2,263.4z M271.6,241.5c1.4,3.6,5.1,5.2,7.4,8.1c-2.7-0.8-5-2.2-7.5-3.3c-3.5-1.4-7.1-2.4-10.8-2.4
		c-7.6-0.1-15.6,0.8-22.4,4.6c-3,1.6-5.3,4.2-7,7c-2.3,3.8-0.6,8.6-3.1,12.2c1.3,0.4,2.6,1.1,4,0.9c1.6-0.2,2.8-1.4,4.1-2.3
		c0.1,4.1,0.4,8.4,2.7,12c2.6,4,7.3,6.5,12.1,6.7c3.9,0.2,7.6-3.1,7.5-7c0.2-2.2-1.3-4-2.9-5.4c0.1,1.3,0.2,2.7,0.1,4
		c-0.3,2.1-2.1,3.9-4.1,4.4c-3.3,0.8-7-0.3-9.3-2.7c-2.9-3-4.6-7.2-4.2-11.4c0.6-7.3,5.5-14.1,12.2-16.9c5-2.3,10.5-2.3,15.9-2.3
		c4.4,0.7,8.8,2,12.9,4c6.4,3.2,12.8,6.6,18.7,10.7c8.4,5.7,16.6,11.9,25,17.7c2.3-0.8,4.8-2.8,7.4-1.5c4.3,3.5,9.7,5.7,15.2,6.5
		c-2-2.4-4.4-4.7-5.6-7.7c-1.1-2.3-1.1-5-2.6-7c-3.1-4.7-3.9-10.8-2.6-16.2c0.5-2.4,1.9-4.4,3-6.6c-0.3-0.9-0.5-2.3-1.8-1.8
		c-1.6,0.9-2.7,2.3-3.8,3.8c0.3-2.8-0.5-5.7-2.5-7.7c0.3,2.5-0.4,5-2.1,6.9c0.7,2.9,1.6,5.8,2.2,8.8c-1.6-2-3-4.2-4.4-6.4
		c-1.4,0.6-3,1.5-4.6,0.8c-4.5-1.3-6.5-6.2-10.4-8.5c2.2,5,6.4,8.9,8.8,13.9c-0.3,0.1-0.9,0.2-1.1,0.3c1.3,2.1,2.6,4.3,3.1,6.7
		c-1.1-0.6-2.2-1.2-3.1-2.2c-3.7-3.9-7-8.2-10-12.7c-2.2-3.3-4.1-7.8-8.6-8.3c-0.5,2.8-1.8,6-0.1,8.7c2,2.7,6.2,3.3,7.3,6.8
		c0.2,2.4-2.8,1.7-3.8,0.6c-6.1-5-10.5-12.5-18.2-15.2c-1.3-0.5-2.2,0.5-2.7,1.5c1.2,1.3,2.3,2.6,3.4,4.1c-3.5-2.6-6.6-6.2-10.9-7.3
		C273,239.8,272.3,240.9,271.6,241.5L271.6,241.5z M166,247.6c0.9-1.5,2-2.8,3.1-4.2c-0.7-1-1.6-2-2.9-1.4
		c-7.7,2.8-12,10.2-18.1,15.2c-1,1.1-4,1.7-3.7-0.5c0.9-3.9,6.1-4.3,7.7-7.7c0.9-2.6,0-5.4-0.6-7.9c-3.2,0.5-5.2,3.1-6.8,5.7
		c-2.6,4.4-5.7,8.5-9,12.4c-1.7,1.9-3.3,4-5.6,5.2c0.2-2.5,1.7-4.7,2.9-6.8c-0.3-0.1-0.8-0.4-1-0.5c2.6-4.6,6-8.7,8.8-13.2
		c-0.2,0-0.6,0-0.9-0.1c-2.7,2.5-5,5.6-8.2,7.5c-1.9,1.2-4.2,0.7-6.1-0.3c-1.3,2.1-2.7,4.3-4.2,6.3c0.4-2.9,1.5-5.6,2-8.5
		c-1.2-2.2-2.5-4.4-2-7c-2,1.9-3,4.8-2.3,7.6c-1.4-1.6-2.7-3.4-4.7-4.1c-0.4,0.7-0.8,1.3-1.1,2c4.9,6.5,4.9,16,0.6,22.8
		c-1.6,2.1-1.5,4.8-2.6,7.1c-1.3,2.9-3.5,5.2-5.6,7.6c4.1-0.5,8-2.2,11.7-4.1c1.7-0.8,2.9-2.7,4.9-2.9c2.2-0.2,4,1.1,5.8,2.1
		c9.7-6.8,19.1-14,29.1-20.4c8.7-5.1,17.7-10.7,27.9-12.1c5.3,0.1,10.7,0.1,15.6,2.3c7.9,3.4,13.6,12.3,12,21
		c-1,4.3-3.9,8.6-8.2,9.9c-2.9,0.9-6.6,0.5-8.3-2.3c-1.3-1.8-0.9-4-0.5-6c-1.3,1.1-2.6,2.3-2.9,4.1c-0.9,4.3,3,8.5,7.2,8.3
		c4-0.1,7.9-1.9,10.7-4.7c3.5-3.7,4.3-9.1,4.2-14.1c1,0.8,2,1.7,3.2,2.1c1.6,0.7,3.3-0.1,4.9-0.6c-2.6-4-0.7-9.3-3.6-13.1
		c-3.8-6.1-11-8.9-17.7-10c-6.9-1.1-14.2-1.5-20.7,1.1c-3,1-5.7,2.9-8.8,3.8c2.2-2.6,5.6-4.1,7.1-7.3c0.7-1.4-1.2-2.5-2.4-1.9
		C172.3,241.6,169.2,244.9,166,247.6L166,247.6z M88.1,243.7c-5,3.9-4,12.7,1.7,15.5c-0.2-2.4-0.9-5.5,1.4-7.1
		c3.1-1.8,8.2-1.2,9.5,2.6c-0.6,0-1.9,0-2.6,0c-0.8,0.9-1.3,2.1-1.7,3.3c1.1-0.3,2.1-0.8,3.2-0.9c1.7,0.2,3.1,1.3,4,2.8
		c1.8,3,1.7,6.7,1,10c-1.8,7.5-7.2,13.7-13.3,18.1c4.4-2.3,8.4-5.2,12.2-8.4c5.3-4.6,10.8-9.9,12.4-17c1.5-8.8-4.1-17.9-12.1-21.3
		C98.6,238.9,92.3,240,88.1,243.7L88.1,243.7z M408,265.3c0.3-0.1,0.8-0.2,1.1-0.3c0.9,3.1,3.7,4.3,5.9,6
		C411.9,270.5,409.6,268,408,265.3z M313.7,311.4c0.3-0.1,0.9-0.3,1.3-0.4c-0.9,1.6-1.8,3.1-2.6,4.7c-0.1,0.1-0.3,0.2-0.4,0.3
		C312.7,314.5,313.3,313,313.7,311.4z"/>
</g>
</svg>
