<?xml version="1.0" encoding="utf-8"?>
<!-- Generator: Adobe Illustrator 23.1.1, SVG Export Plug-In . SVG Version: 6.00 Build 0)  -->
<svg version="1.1" id="Layer_1" xmlns="http://www.w3.org/2000/svg" xmlns:xlink="http://www.w3.org/1999/xlink" x="0px" y="0px"
	 viewBox="0 0 1190.6 841.9" style="enable-background:new 0 0 1190.6 841.9;" xml:space="preserve">
<style type="text/css">
	.st0{fill:#FFFFFF;}
	.st1{fill:#FBBE23;}
	.st2{fill:#F7A924;}
	.st3{fill:#2E2A31;}
	.st4{fill:#FCBE21;}
	.st5{fill:#F8A923;}
	.st6{fill:#2D2A31;}
	.st7{fill:#302C31;}
	.st8{fill:#312C2F;}
	.st9{fill:#F8BD22;}
</style>
<g id="eoWkBi_1_">
	<g>
		<path class="st0" d="M205.9,409.7c0-126.9,0-253.7-0.1-380.6c0-3.2,0.6-3.8,3.8-3.8c127.1,0.1,254.2,0.1,381.4,0.1
			c-0.5,1.1-1.8,0.4-2.5,1c-6.4,1-11.7,4.2-16.2,8.7c-8.5,8.4-16.9,16.9-25.3,25.3C438.6,168.8,330.3,277.2,222,385.5
			C214.9,392.6,208.2,399.6,205.9,409.7z"/>
		<path class="st0" d="M205.9,804.9c0-128.1,0-256.2,0-384.3c1.2,1.5,1.1,3.4,1.7,5.1c2.4,7.2,7.6,12.2,12.8,17.4
			c78.7,78.7,157.3,157.4,236,236.1c38.5,38.6,77.1,77.1,115.6,115.7c4.5,4.5,9.7,7.8,16.1,8.9c0.7,0.3,1.4,0.7,2.1,1
			c-1.7,0-3.4,0.1-5.1,0.1C458.6,804.9,332.3,804.9,205.9,804.9z"/>
		<path class="st0" d="M984.6,420.6c0,128.1,0,256.2,0,384.3c-126.2,0-252.5,0-378.7,0c-2.1,0-4.2-0.1-6.2-0.1
			c9.5-1.8,16.6-7.2,23.1-14c9.3-9.8,19-19.2,28.6-28.7c105.1-105.1,210.1-210.3,315.2-315.4C974.3,439,982.1,431.7,984.6,420.6z"/>
		<path class="st0" d="M599.6,25.4c127.1,0,254.2,0,381.4-0.1c3.2,0,3.8,0.6,3.8,3.8c-0.1,126.9-0.1,253.7-0.1,380.6
			c-2.2-6.2-4.4-12.4-9.2-17.2C938.7,355.8,902,319,865.3,282.2c-80.1-80.1-160.2-160.1-240.1-240.3
			C617.7,34.5,610.4,27.4,599.6,25.4z"/>
		<path class="st1" d="M599.7,804.8c-3.2,0-6.4,0-9.6,0c-0.7-0.3-1.4-0.7-2.1-1c0.6-0.3,1.2-0.7,1.1-1.4c-1-12.1-0.2-24.3-0.5-36.4
			c1.2,0.7,2.4,0.8,3.7,0.8c12.1,0,22.4-4.1,31-12.8c35-35.2,70.1-70.2,105.2-105.3c68.3-68.3,136.6-136.7,204.9-205
			c4.1-4.1,7.7-8.4,9.8-13.9c5.9-15.8,3.2-30-8.7-41.9C870,323.2,805.5,258.6,741,194c-39.1-39.1-78.2-78.2-117.3-117.4
			c-6-6.1-12.9-10.4-21.4-11.9c-4.5-0.8-9.1-0.2-13.6-0.3c-0.1-12.7-0.1-25.3-0.2-38c0.7-0.6,2,0.1,2.5-1c2.9,0,5.7,0,8.6,0
			c10.8,2,18.1,9.1,25.6,16.5c80,80.2,160.1,160.2,240.1,240.3c36.7,36.7,73.4,73.5,110.2,110.2c4.9,4.9,7.1,11,9.2,17.2
			c0,3.6,0,7.3,0,10.9c-2.5,11.1-10.4,18.4-18,26.1C861.5,551.8,756.5,656.9,651.4,762c-9.5,9.5-19.3,18.9-28.6,28.7
			C616.3,797.6,609.2,803,599.7,804.8z"/>
		<path class="st2" d="M588.5,26.4c0.1,12.7,0.1,25.3,0.2,38c-8.7,2-15.9,6.4-22.3,12.7C463.1,180.5,359.8,283.9,256.5,387.2
			c-16.3,16.3-16.3,39.6,0,55.9c32.2,32.2,64.5,64.5,96.7,96.7c70.4,70.5,140.9,140.9,211.2,211.5c7,7,14.5,12.5,24.2,14.7
			c0.3,12.1-0.6,24.3,0.5,36.4c0.1,0.7-0.5,1.1-1.1,1.4c-6.4-1.1-11.6-4.4-16.1-8.9c-38.5-38.6-77.1-77.1-115.6-115.7
			c-78.7-78.7-157.3-157.4-236-236.1c-5.2-5.2-10.3-10.2-12.8-17.4c-0.6-1.7-0.4-3.6-1.7-5.1c0-3.6,0-7.3,0-10.9
			c2.3-10.1,9-17.1,16-24.2C330.3,277.2,438.6,168.8,547,60.4c8.4-8.4,16.9-16.9,25.3-25.3C576.8,30.6,582.1,27.5,588.5,26.4z"/>
		<path class="st3" d="M588.6,765.9c-9.7-2.1-17.3-7.7-24.2-14.7c-70.3-70.6-140.8-141-211.2-211.5c-32.2-32.2-64.4-64.5-96.7-96.7
			c-16.3-16.3-16.3-39.7,0-55.9C359.8,283.9,463.1,180.5,566.3,77.1c6.4-6.4,13.6-10.7,22.3-12.7c4.5,0.2,9.1-0.5,13.6,0.3
			c8.5,1.5,15.4,5.8,21.4,11.9c39.1,39.2,78.2,78.3,117.3,117.4c64.5,64.6,129.1,129.1,193.5,193.8c11.9,12,14.6,26.1,8.7,41.9
			c-2,5.5-5.7,9.8-9.8,13.9c-68.3,68.3-136.6,136.7-204.9,205c-35.1,35.1-70.2,70.1-105.2,105.3c-8.6,8.7-18.9,12.8-31,12.8
			C591,766.7,589.8,766.6,588.6,765.9z M588.7,745.5c7,2.8,13.2,1.4,18.9-3.3c1.9-1.6,3.5-3.4,5.3-5.2
			c70.6-70.6,141.2-141.3,211.8-211.9c31.9-31.9,63.7-63.8,95.6-95.6c2.8-2.8,5.1-5.9,6.1-9.8c2.1-8.5-1.6-14.6-7.4-20.4
			c-83.7-83.6-167.3-167.3-250.9-251c-19.6-19.6-39.1-39.1-58.7-58.7c-5.9-5.9-12.6-7.9-20.6-4.9c-3,0.7-5.2,2.8-7.4,4.9
			C477.6,193.4,373.8,297.2,270.1,401c-8.7,8.7-8.7,19.6,0,28.2c103.7,103.8,207.5,207.6,311.2,311.4
			C583.4,742.8,585.6,744.8,588.7,745.5z"/>
		<path class="st4" d="M603.1,214.9c-4.3-1.8-7.4-3.4-11.7-5.3c-1.1-0.5-5.1,0.7-5.4-0.9c0.5-1.9,1.9-6.2,3.4-7.9
			c0.7,0.6,1.4,1.1,2.1,1.7c17.9,15.8,45.1,10.5,55.6-10.9c1.5-3,2.7-3.4,5.4-1.8c3,1.8,5.9,2.1,8.5-1.2c-2.1-1.7-3.9-3.4-6-4.7
			c-2.7-1.7-2.8-3.4-1.9-6.3c7.3-22.1-9.4-45.5-32.6-46.1c-13.6-0.3-23.9,5.8-31.6,16.6c-0.1-19.6-0.1-39.3-0.2-58.9
			c0-1.5,1.3-3,0.1-4.5c8-3,14.7-1,20.6,4.9c19.5,19.6,39.1,39.1,58.7,58.7c83.6,83.7,167.2,167.4,250.9,251
			c5.8,5.8,9.5,12,7.4,20.4c-1,3.9-3.3,7-6.1,9.8c-31.9,31.8-63.7,63.7-95.6,95.6C754,595.8,683.4,666.4,612.8,737.1
			c-1.7,1.7-3.4,3.6-5.3,5.2c-5.6,4.7-11.9,6.1-18.9,3.3c0.8-1.4-0.1-2.8-0.1-4.2c0-56.3,0-112.6,0-168.8c0-1.6-0.1-3.2,1.8-3.9
			c0.6,1,1.3,1.9,1.9,2.9c3.6,6.3,3.6,6.3,11.2,4.9c-1.6-2.9-3.1-5.7-4.8-8.4c-1-1.7-1.3-2.9,0.3-4.7c2.8-3.2,2.6-7.4,0-10.8
			c-2.6-3.5-6.3-4.3-10.3-4.2c0-1.5,0-3,0-4.5c2.7-0.1,5.4-0.1,8.1-0.2c18.2-0.5,32.1-15,31.8-32.9c-0.3-17.8-14.5-31.5-32.6-31.6
			c-2.5,0-4.9-0.1-7.4-0.1c0-6.3,0-12.5,0-18.8c12.6,4.3,22-0.9,23.9-13.5c3.6-24,7-48,10.5-72c0.8-5.1-0.5-9.4-3.5-13.5
			c-7.7-10.4-15.3-21-23-31.5c1.6-0.8,2.6,0.2,3.6,1c30.7,21.7,62.6,41.5,92.5,64.4c1.6,1.3,1.6,2.1,0.8,3.8
			c-1.8,3.6-3.3,7.3-4.9,11c-0.8,1.8-0.5,3,1.3,4.1c6.3,4.1,12.5,8.4,18.6,12.8c10.3,7.4,20.9,6.3,31.8,1.7c2.7-1.2,4.7-3.2,5.7-6.1
			c3.2-8.8-1.7-25.3-9.4-30.8c-7.1-5.1-14.4-9.8-21.5-14.8c-1.6-1.1-2.6-1-4,0.3c-3,2.9-6.1,5.6-8.8,8.9c-0.9,1.1-1.8,1.9-3.2,0.7
			c-3.8-3.3-8.8-4.7-12.9-7.6c-13.9-9.8-28-19.3-42-28.9c-0.9-0.6-2.1-1.1-2.6-2.4c6.6-2.6,8.9-7.6,8.5-14.5
			c-0.9-18.9-1.7-37.9-4.1-56.7c-1.5-12.4-3.3-24.7-7.7-36.5c-3.1-8.4-8-15.1-16.9-18.1 M636.5,511.2c0,9.6,0.1,19.2-0.1,28.8
			c-0.1,2.9,0.7,3.8,3.6,3.7c12.1-0.2,24.2,0,36.2-0.1c3.8,0,9,1.8,11.1-0.9c1.9-2.5,0.5-7.5,0.7-11.3c0.2-2.6-0.8-3.3-3.3-3.2
			c-8.6,0.1-17.1,0.1-25.7,0.1c-5.8,0-5.7,0-5.8-5.7c-0.1-2.9,0.7-3.8,3.7-3.7c8.7,0.2,17.4,0,26.1,0.1c2.4,0,3.2-0.6,3.1-3.1
			c-0.2-3-0.2-6,0-9c0.2-2.7-0.7-3.6-3.4-3.5c-8.7,0.2-17.4,0-26.1,0.1c-2.6,0-3.6-0.7-3.2-3.3c0.1-0.9,0.1-1.8,0-2.7
			c-0.4-2.5,0.7-3.1,3.1-3c6.6,0.1,13.2,0.1,19.9,0c3.8-0.1,8.9,1.7,11.2-0.8c2.3-2.5,0.4-7.4,0.7-11.3c0.2-2.4-0.5-3.4-3.2-3.4
			c-15.1,0.1-30.1,0.1-45.2,0c-2.7,0-3.3,0.8-3.2,3.3C636.5,492,636.5,501.6,636.5,511.2z M756.4,543.6c-4.7-8.2-8.9-15.8-13.3-23.3
			c-1.4-2.3-1.4-3.7,0.7-5.8c6.3-6,7.5-13.6,4.3-21.5c-3.1-7.7-9.1-13.1-17.4-13.8c-10.3-0.8-20.7-0.2-31.1-0.2
			c-1.9,0-2.5,0.6-2.5,2.5c0,19.9,0.1,39.7,0,59.6c0,2.1,0.8,2.6,2.8,2.6c4-0.1,8-0.2,12.1,0c2.5,0.1,3.1-0.9,3-3.2
			c-0.1-4.3,0.2-8.6-0.1-12.8c-0.3-3.6,1-4.7,4.3-4.2c0.9,0.1,1.8,0.2,2.7,0c3.1-0.6,4.6,0.9,6,3.6c2.4,4.9,5.3,9.5,7.9,14.3
			c0.7,1.4,1.5,2.3,3.2,2.2C744.6,543.6,750.1,543.6,756.4,543.6z M739.7,563.6c0.3-0.1,0.6-0.2,0.9-0.2c2.5,3.9,5.2,7.7,7.6,11.7
			c1.9,3.2,4.9,1.9,7.4,1.8c2.6-0.1,1.4-2.6,1.4-4.1c0.1-7.1-0.1-14.3,0.1-21.4c0.1-3.2-1.7-2.9-3.7-2.8c-1.9,0.1-4.3-0.8-4.1,2.8
			c0.2,3.6,0.1,7.3,0.1,10.9c-3.4-3.9-6.1-7.8-8.6-11.9c-1.9-3.2-4.9-1.8-7.4-1.6c-2.5,0.1-1.3,2.7-1.3,4.1
			c-0.1,6.7,0.1,13.5-0.1,20.2c-0.1,2.9,0.5,4,3.8,4c3.4,0,4.2-1.1,4-4.2C739.5,569.7,739.7,566.7,739.7,563.6z M714.3,547.8
			c-8.3-0.1-15.1,6.7-15.1,15c0,8.2,6.5,14.8,14.7,15c8.3,0.2,15.3-6.6,15.4-14.8C729.4,554.7,722.6,547.8,714.3,547.8z
			 M605.3,559.1c0,2.3,0,4.7,0,7c0.1,6.4,5.2,11.5,11.6,11.7c6.3,0.1,11.8-5,12.1-11.3c0.2-5.1-0.1-10.1,0.2-15.2
			c0.2-4-2.5-2.6-4.4-2.8c-2.2-0.2-4.1-0.3-3.9,3c0.3,4.3,0,8.6,0.1,12.8c0,2.7-0.4,5.2-3.7,5.2c-3.6,0-4-2.5-3.9-5.4
			c0.1-4.4,0-8.8,0-13.2c0-1,0.3-2-1.2-2.5c-4.4-1.3-6.7,0.3-6.7,4.8C605.3,555.2,605.3,557.2,605.3,559.1z M631.5,563
			c0.4,6.2,3.4,11,9.3,13.5c5.6,2.4,10.9,1.3,15.6-2.5c0.7-0.6,2.2-1.4,1.4-2.4c-1.3-1.6-3-2.9-4.7-4c-1.3-0.9-1.9,0.9-2.9,1.4
			c-3.2,1.7-6.1,1.4-8.6-1.1c-2.5-2.5-2.9-5.5-1.3-8.6c1.6-3.1,4.6-5,7.7-3.6c3.3,1.5,4.6-0.5,6.6-2c2.1-1.6,2-2.6-0.3-3.9
			c-4.9-2.7-9.9-3.1-14.8-0.4C634.3,552.4,631.8,557,631.5,563z M671.5,548.5c-3.1,0-6.2,0.1-9.3,0c-1.9-0.1-2.7,0.4-2.8,2.5
			c-0.2,3.3,0.5,5.3,4.3,4.5c3.4-0.6,4.2,0.9,4,4.1c-0.3,4.7,0.1,9.3-0.1,14c-0.2,3,1.1,3.5,3.6,3.3c2.2-0.2,4.5,0.5,4.1-3.2
			c-0.3-3.9-0.1-7.8-0.1-11.7c0-6.1,0-6.2,6-6.5c3.1-0.2,2.3-2.1,2.3-3.8c0.1-1.6,0.4-3.5-2.3-3.3
			C678,548.6,674.8,548.5,671.5,548.5z M694.7,563.2c0-4-0.2-8,0.1-12c0.2-2.9-1.6-2.9-3.4-2.6c-1.7,0.3-4.5-1.4-4.4,2.3
			c0.1,8,0.1,16,0,24.1c0,3.5,2.6,2,4.2,2.2c1.6,0.1,3.8,0.8,3.7-2.3C694.6,570.9,694.7,567,694.7,563.2z"/>
		<path class="st5" d="M570.2,200c-12.3-3.4-25-4.4-37.8-3.9c-13.9,0.6-23.8,6.3-28.9,20.1c-4.8,13.1-8.9,26.3-12.4,39.7
			c-1.5,5.8-0.6,10.8,4.6,14.4c1,0.7,1.8,1.3,0.7,2.4c-2.8,2.8-0.6,3.7,1.7,4.7c2.9,1.4,5.9,2.7,9.1,3.4c4,0.9,8.2,1.6,11.6-1.2
			c2.3-2,3.7-1.4,5.5,0.1c0.9,0.7,1.8,1.5,2.9,2c2.4,1.2,2.5,2.6,1.6,5c-2.4,6-4.3,12.2-6.6,18.3c-1.2,3.4-1.4,6.8-0.7,10.3
			c4,18.6,7.9,37.3,11.9,56c0.6,2.7,0.4,5-0.7,7.5c-8.1,19.8-16.1,39.7-24.2,59.5c-2.8,7-2.1,13.3,3.2,18.7c8.3,8.5,22,5.4,26.7-6.1
			c9.1-22.1,17.9-44.3,26.9-66.4c1.8-4.4,2.1-8.7,1.1-13.3c-2.2-10.2-4.3-20.5-6.5-31c3.3,0.3,5.4,1.5,7.1,3.9
			c7.1,9.9,14.3,19.8,21.6,29.6c1.2,1.6,1.5,3,1.3,5c-3.1,20.7-5.9,41.4-9.2,62c-1.4,8.4,1,14.8,8,19.5c0,6.3,0,12.5,0,18.8
			c-6.1,0.1-12.2,0.2-18.3,0.1c-2.2,0-2.9,0.7-2.9,2.9c0.1,19.6,0.1,39.2,0,58.8c0,2.2,0.6,2.9,2.9,2.9c6.1-0.1,12.2,0.1,18.3,0.1
			c0,1.5,0,3,0,4.5c-2.8,0-5.7,0.2-8.5,0.1c-1.6,0-2.3,0.5-2.3,2.2c0.1,8,0,16,0,24.1c0,1.4,0.5,2,2,2.2c5.2,0.7,5.8,0.2,5.8-5.3
			c0-4.2,0.3-4.3,4.8-3.1c-1.9,0.7-1.8,2.3-1.8,3.9c0,56.3,0,112.6,0,168.8c0,1.4,0.9,2.8,0.1,4.2c-3-0.7-5.2-2.8-7.3-4.9
			C477.6,636.9,373.8,533.1,270.1,429.3c-8.7-8.7-8.7-19.6,0-28.2C373.8,297.2,477.6,193.4,581.3,89.6c2.1-2.1,4.3-4.1,7.4-4.9
			c1.2,1.5-0.1,3-0.1,4.5c0.1,19.6,0.1,39.3,0.2,58.9c-1,3.8-3.2,5.3-7.1,3.8c-1.6-0.6-3.3-0.5-5-0.9c-1.6-0.3-2,0.2-1.8,1.9
			c0.5,3.3,3,4.2,5.6,5.3c1.3,0.6,3.5,0.7,2.4,3.4c-5.9,14.4-3.3,27.4,6.5,39.1c-1.4,1.7-0.3,5.4-0.9,7.2 M538.1,512.3
			c-0.3-0.1-0.6-0.2-0.7-0.3c-4.7-7.2-10.2-14-13.8-21.7c-4.6-9.8-11.5-12.8-21.5-11.3c-2.2,0.3-3.1,0.5-3.1,3
			c0.1,19.6,0.1,39.2,0,58.8c0,2.3,0.8,2.9,2.9,2.8c3.8-0.1,7.5-0.2,11.3,0c2.5,0.1,3.1-0.8,3-3.1c-0.1-9.2-0.1-18.4,0-27.6
			c0-0.9-0.7-2,0.7-2.7c4.8,7.5,10.4,14.5,14.3,22.3c4.6,9.3,11.2,13.1,21.3,11.1c0.3,0,0.5,0,0.8,0c2,0.2,2.7-0.5,2.7-2.6
			c-0.1-19.7-0.1-39.5,0-59.2c0-2.4-1-2.8-3-2.7c-3.6,0.1-7.3,0.2-10.9,0c-2.7-0.2-3.6,0.6-3.5,3.4c0.2,8.7,0.1,17.4,0,26.1
			C538.5,509.8,538.9,511.1,538.1,512.3z M489.1,502.2C489,502.2,489,502.2,489.1,502.2c0-6.5-0.2-13,0.1-19.5
			c0.1-3-0.9-3.8-3.8-3.6c-3.6,0.2-7.3,0.2-10.9,0c-2.9-0.2-3.4,1-3.4,3.6c0.1,11.9,0.1,23.9,0,35.8c0,5.6-4.6,9.5-10.1,8.8
			c-5-0.6-8-4.2-8-9.8c-0.1-11.6-0.1-23.1,0.1-34.7c0-3-0.8-3.8-3.7-3.6c-3.6,0.2-7.3,0.2-10.9,0c-2.8-0.2-3.5,0.9-3.4,3.5
			c0.1,12.2,0,24.4,0.1,36.6c0,9.6,4.3,17,12.4,21.9c9.2,5.6,18.6,5.9,28.1,0.6c9-5.1,13.7-12.7,13.4-23.3
			C488.9,513.1,489.1,507.6,489.1,502.2z M503.5,563.6c0.3-0.1,0.6-0.1,0.9-0.2c2.5,3.9,5.1,7.6,7.5,11.6c2,3.4,5.1,2,7.7,1.8
			c2.5-0.2,1.2-2.7,1.3-4.1c0.1-6.5,0-13,0.1-19.4c0-2.7,0.4-4.8-3.7-4.8c-4,0-4,1.7-4,4.7c0,3.1,0.5,6.2-0.5,9.9
			c-2.9-4.6-5.6-8.6-8.1-12.6c-2-3.1-5-1.7-7.4-1.5c-2.2,0.1-1.1,2.5-1.2,3.9c-0.1,7.1,0.1,14.3-0.1,21.4c-0.1,2.9,1.3,3.1,3.5,3
			c2.1-0.1,4.6,0.6,4.2-3.1C503.3,570.4,503.5,567,503.5,563.6z M492.8,563c0.1-8.4-6.6-15.1-14.9-15.2c-8.2-0.1-15.2,6.8-15.2,15
			c0,8.2,6.9,15,15.2,15C486.1,577.8,492.8,571.1,492.8,563z M537.4,547.5c-2,0.1-3.9,0.4-5.8,1c-4.1,1.3-6.7,4.7-6.7,8.6
			c0,4.1,2,6.5,6.6,8c1.7,0.5,3.5,0.8,5.3,1.4c1.7,0.6,4.6,0.4,4.1,3c-0.4,2.6-3.1,1.6-5,1.7c-2.1,0-4-0.8-6-1.5
			c-3.7-1.3-3.2,2.5-4.4,4c-1.5,1.8,0.8,2,1.7,2.4c4.6,1.9,9.3,2.3,14.1,1.3c4.8-1,7.4-3.8,7.6-8c0.3-4.7-1.5-7.2-6.4-8.9
			c-2.5-0.8-5-1.3-7.5-2c-1-0.3-2.1-0.7-2-2c0.1-1.5,1.3-1.7,2.5-1.8c2.4-0.2,4.7,0.2,6.8,1.3c1.6,0.8,2.4,0.5,3.4-1
			c2.6-4.1,2.4-4.9-2.3-6.2C541.6,548.1,539.5,547.9,537.4,547.5z M461.1,552c-5.9-5.8-15-5.6-20.7,0.2c-5.9,6.1-5.8,15.3,0.2,21.3
			c5.5,5.6,15.3,5.7,20.7,0.1c0.6-0.6,1.9-1.2,0.9-2.2c-1.4-1.4-2.9-2.6-4.5-3.7c-1.6-1.1-2.2,0.9-3.2,1.4c-3,1.5-5.8,1.2-8.3-1.1
			c-2.4-2.3-2.9-5.3-1.6-8.2c1.3-3,4.1-5.4,7-4.2C456.6,557.8,458.3,554.1,461.1,552z M559.7,566.1c0,2.7,0.2,5.5,0,8.2
			c-0.3,3.3,2,2.7,3.8,2.7c1.8,0,4.1,0.7,3.9-2.6c-0.2-4,0-8,0-12c0-6.2,0-6.3,5.9-6.7c2.8-0.2,2.2-2,2.2-3.5c0-1.5,0.9-3.6-2-3.6
			c-6.6,0-13.2,0.1-19.8,0c-2.4,0-2.5,1.5-2.2,3c0.2,1.5-1.2,3.8,2,4.1c2.1,0.2,4.9-1.2,6,0.9c0.9,1.7,0.3,4.3,0.3,6.5
			C559.8,564,559.7,565.1,559.7,566.1z"/>
		<path class="st6" d="M604.3,214.4 M591.4,208.7 M621.5,221.9c8.9,3,13.8,9.6,16.9,18.1c4.3,11.8,6.1,24.1,7.7,36.5
			c2.4,18.8,3.2,37.8,4.1,56.7c0.3,6.9-1.9,11.9-8.5,14.5c0.5,1.3,1.7,1.8,2.6,2.4c14,9.6,28.1,19.1,42,28.9
			c4.1,2.9,9.1,4.2,12.9,7.6c1.4,1.2,2.3,0.4,3.2-0.7c2.6-3.2,5.7-6,8.8-8.9c1.4-1.3,2.4-1.4,4-0.3c7.1,5,14.4,9.8,21.5,14.8
			c7.7,5.5,12.6,22,9.4,30.8c-1,2.9-3,4.9-5.7,6.1c-10.8,4.6-21.5,5.7-31.8-1.7c-6.1-4.4-12.4-8.6-18.6-12.8
			c-1.8-1.2-2.1-2.3-1.3-4.1c1.7-3.7,3.1-7.4,4.9-11c0.8-1.7,0.8-2.5-0.8-3.8c-29.8-22.9-61.8-42.8-92.5-64.4c-1-0.7-2-1.8-3.6-1
			c7.7,10.5,15.3,21,23,31.5c3,4.1,4.3,8.4,3.5,13.5c-3.5,24-6.9,48-10.5,72c-1.9,12.5-11.3,17.7-23.9,13.5c-7-4.7-9.4-11-8-19.5
			c3.3-20.6,6.1-41.3,9.2-62c0.3-2-0.1-3.4-1.3-5c-7.3-9.8-14.5-19.7-21.6-29.6c-1.7-2.4-3.9-3.6-7.1-3.9c2.2,10.5,4.3,20.8,6.5,31
			c1,4.6,0.7,8.9-1.1,13.3c-9,22.1-17.9,44.3-26.9,66.4c-4.7,11.5-18.4,14.6-26.7,6.1c-5.3-5.4-6-11.8-3.2-18.7
			c8.1-19.8,16-39.7,24.2-59.5c1-2.5,1.2-4.8,0.7-7.5c-4-18.6-7.9-37.3-11.9-56c-0.8-3.6-0.5-6.9,0.7-10.3
			c2.2-6.1,4.2-12.3,6.6-18.3c0.9-2.4,0.7-3.9-1.6-5c-1-0.5-2-1.3-2.9-2c-1.8-1.5-3.3-2.1-5.5-0.1c-3.3,2.9-7.6,2.1-11.6,1.2
			c-3.2-0.7-6.2-2-9.1-3.4c-2.2-1.1-4.5-1.9-1.7-4.7c1.1-1.1,0.3-1.7-0.7-2.4c-5.2-3.6-6.2-8.6-4.6-14.4
			c3.6-13.4,7.6-26.7,12.4-39.7c5.1-13.7,15-19.5,28.9-20.1c12.8-0.6,25.5,0.5,37.8,3.9 M626.9,338.2c-0.9-25.8-2.1-50.8-6.5-75.6
			c-0.5,0.2-0.9,0.2-0.9,0.4c-8.2,16.9-16.4,33.8-24.8,50.6c-1.1,2.2,0.3,2.7,1.5,3.6c7.2,4.9,14.3,9.8,21.5,14.7
			C620.6,333.8,623.4,335.8,626.9,338.2z M553.3,220.5c-7.5-1.2-14.6-1.3-21.7-1c-3.1,0.1-4.9,1.5-6.1,4.4c-2.3,5.7-4,11.5-6.2,17.2
			c-1.3,3.4-0.7,5.8,1.8,8.6c4.5,5,8.9,10.1,6.6,18c-0.7,2.5,3,3.5,5,4.5c1.7,0.9,1.7-1.5,2.1-2.5c4.7-12.4,9.3-24.8,14-37.1
			C550.3,228.7,551.8,224.7,553.3,220.5z M516.3,251.9c-0.8,2.8-1.5,5-1.9,7.3c-1.3,6.3-3.6,11.7-10.9,13c-0.6,0.1-1.3,0.4-1.2,1.3
			c0.1,0.8,0.9,0.9,1.4,1.1c6.2,2.9,11.1,1.5,15-4.3c0.7-1.1,1.4-2.2,2.2-3.2c1.7-2.3,1.9-4.7,0.9-7.3
			C520.6,256.9,519.1,254.4,516.3,251.9z"/>
		<path class="st6" d="M589.4,200.8c-9.8-11.8-12.5-24.8-6.5-39.1c1.1-2.7-1-2.8-2.4-3.4c-2.5-1.1-5.1-2-5.6-5.3
			c-0.2-1.6,0.2-2.2,1.8-1.9c1.7,0.3,3.4,0.3,5,0.9c3.9,1.4,6.1,0,7.1-3.8c7.7-10.9,18-17,31.6-16.6c23.2,0.6,39.9,24,32.6,46.1
			c-1,3-0.8,4.7,1.9,6.3c2.1,1.3,3.9,3,6,4.7c-2.6,3.2-5.5,3-8.5,1.2c-2.6-1.6-3.9-1.3-5.4,1.8c-10.4,21.5-37.7,26.7-55.6,10.9
			C590.8,201.9,590.1,201.4,589.4,200.8z"/>
		<path class="st3" d="M588.7,543.8c-6.1-0.1-12.2-0.2-18.3-0.1c-2.2,0-2.9-0.7-2.9-2.9c0.1-19.6,0.1-39.2,0-58.8
			c0-2.2,0.6-2.9,2.9-2.9c6.1,0.1,12.2-0.1,18.3-0.1c2.5,0,4.9,0.1,7.4,0.1c18.1,0.1,32.3,13.8,32.6,31.6
			c0.3,17.9-13.7,32.4-31.8,32.9C594.1,543.7,591.4,543.8,588.7,543.8z M588.6,527.5c2.6,0,5.2,0.3,7.7,0.1
			c8-0.6,14.2-7.5,14.5-15.9c0.3-8-5.5-15.1-13.4-16.3c-0.8-0.6-1.6-0.6-2.5-0.4c-0.8,0-1.6,0-2.4,0c-0.5,0-1,0-1.5,0
			c-0.5,0-1.1,0-1.6,0c-5.1-0.3-5.1-0.3-5.1,4.7c0,8,0.2,16-0.1,24C584.1,527.1,585.2,528.3,588.6,527.5z"/>
		<path class="st7" d="M636.5,511.2c0-9.6,0.1-19.2-0.1-28.8c0-2.5,0.6-3.3,3.2-3.3c15.1,0.1,30.1,0.1,45.2,0c2.7,0,3.4,0.9,3.2,3.4
			c-0.3,3.9,1.6,8.8-0.7,11.3c-2.3,2.5-7.3,0.7-11.2,0.8c-6.6,0.1-13.2,0.1-19.9,0c-2.3,0-3.4,0.6-3.1,3c0.1,0.9,0.1,1.8,0,2.7
			c-0.3,2.5,0.7,3.3,3.2,3.3c8.7-0.2,17.4,0,26.1-0.1c2.8-0.1,3.7,0.8,3.4,3.5c-0.2,3-0.2,6,0,9c0.2,2.4-0.7,3.1-3.1,3.1
			c-8.7-0.1-17.4,0.1-26.1-0.1c-3-0.1-3.8,0.8-3.7,3.7c0.2,5.7,0,5.7,5.8,5.7c8.6,0,17.1,0.1,25.7-0.1c2.5,0,3.5,0.6,3.3,3.2
			c-0.3,3.9,1.2,8.8-0.7,11.3c-2,2.6-7.2,0.8-11.1,0.9c-12.1,0.1-24.2,0-36.2,0.1c-3,0-3.7-0.8-3.6-3.7
			C636.6,530.4,636.5,520.8,636.5,511.2z"/>
		<path class="st3" d="M756.4,543.6c-6.3,0-11.9-0.1-17.4,0c-1.7,0-2.5-0.9-3.2-2.2c-2.6-4.8-5.4-9.4-7.9-14.3
			c-1.3-2.6-2.9-4.2-6-3.6c-0.9,0.2-1.8,0.1-2.7,0c-3.3-0.5-4.6,0.6-4.3,4.2c0.4,4.3,0,8.6,0.1,12.8c0.1,2.3-0.5,3.3-3,3.2
			c-4-0.2-8-0.1-12.1,0c-1.9,0.1-2.8-0.5-2.8-2.6c0.1-19.9,0.1-39.7,0-59.6c0-1.9,0.6-2.5,2.5-2.5c10.4,0.1,20.8-0.6,31.1,0.2
			c8.3,0.6,14.3,6.1,17.4,13.8c3.2,7.9,1.9,15.4-4.3,21.5c-2.2,2.1-2.1,3.4-0.7,5.8C747.5,527.8,751.7,535.4,756.4,543.6z
			 M714.4,500.4c0,6.8,0,6.8,7,6.8c1.3,0,2.6,0.1,3.9,0c3.6-0.3,6.4-3,6.6-6.5c0.2-3.1-2.2-6.2-5.6-7c-1.6-0.3-3.3-0.3-5-0.3
			C714.4,493.4,714.4,493.4,714.4,500.4z"/>
		<path class="st8" d="M739.7,563.6c0,3.1-0.2,6.2,0.1,9.2c0.3,3.1-0.6,4.3-4,4.2c-3.2,0-3.8-1.1-3.8-4c0.2-6.7,0-13.5,0.1-20.2
			c0-1.4-1.2-4,1.3-4.1c2.4-0.1,5.4-1.6,7.4,1.6c2.5,4.1,5.2,8,8.6,11.9c0-3.6,0.2-7.3-0.1-10.9c-0.2-3.6,2.2-2.7,4.1-2.8
			c2-0.1,3.8-0.3,3.7,2.8c-0.2,7.1,0,14.3-0.1,21.4c0,1.4,1.2,3.9-1.4,4.1c-2.5,0.1-5.4,1.4-7.4-1.8c-2.4-4-5.1-7.8-7.6-11.7
			C740.3,563.4,740,563.5,739.7,563.6z"/>
		<path class="st8" d="M714.3,547.8c8.3,0.1,15.1,6.9,15,15.2c-0.1,8.3-7.1,15-15.4,14.8c-8.2-0.2-14.7-6.8-14.7-15
			C699.2,554.5,706,547.7,714.3,547.8z M706.9,563c0.1,4.3,3.2,7.5,7.3,7.5c4.2,0,7.6-3.5,7.5-7.8c-0.1-4.1-3.5-7.6-7.4-7.6
			C710.1,555,706.8,558.5,706.9,563z"/>
		<path class="st8" d="M590.4,568.6c-4.5-1.3-4.7-1.1-4.8,3.1c0,5.5-0.6,6-5.8,5.3c-1.5-0.2-2-0.8-2-2.2c0-8,0-16,0-24.1
			c0-1.7,0.7-2.2,2.3-2.2c2.8,0,5.7-0.1,8.5-0.1c4.1-0.1,7.7,0.8,10.3,4.2c2.5,3.4,2.8,7.6,0,10.8c-1.6,1.8-1.3,3-0.3,4.7
			c1.7,2.7,3.2,5.6,4.8,8.4c-7.6,1.5-7.6,1.5-11.2-4.9C591.7,570.5,591,569.6,590.4,568.6z M588.2,560.9c2.5,0.1,4.7-0.2,4.7-2.9
			c0-2.9-2.4-3.1-4.7-3.3c-2.7-0.2-2.7,1.3-2.8,3.3C585.3,560.3,586,561.4,588.2,560.9z"/>
		<path class="st8" d="M605.3,559.1c0-1.9,0-3.9,0-5.8c0-4.5,2.3-6.1,6.7-4.8c1.5,0.4,1.2,1.5,1.2,2.5c0,4.4,0.1,8.8,0,13.2
			c0,2.9,0.3,5.4,3.9,5.4c3.4,0,3.8-2.5,3.7-5.2c-0.1-4.3,0.2-8.6-0.1-12.8c-0.2-3.3,1.7-3.2,3.9-3c1.9,0.2,4.6-1.1,4.4,2.8
			c-0.2,5,0,10.1-0.2,15.2c-0.2,6.4-5.8,11.5-12.1,11.3c-6.4-0.2-11.5-5.3-11.6-11.7C605.3,563.8,605.3,561.5,605.3,559.1z"/>
		<path class="st8" d="M631.5,563c0.3-6.1,2.8-10.6,8-13.5c5-2.7,9.9-2.3,14.8,0.4c2.2,1.2,2.4,2.3,0.3,3.9c-2,1.5-3.3,3.5-6.6,2
			c-3.1-1.4-6.1,0.5-7.7,3.6c-1.6,3.1-1.1,6.1,1.3,8.6c2.5,2.5,5.4,2.8,8.6,1.1c0.9-0.5,1.5-2.3,2.9-1.4c1.7,1.1,3.4,2.4,4.7,4
			c0.8,1-0.7,1.8-1.4,2.4c-4.7,3.9-10,4.9-15.6,2.5C634.9,574,631.9,569.3,631.5,563z"/>
		<path class="st8" d="M671.5,548.5c3.2,0,6.5,0.1,9.7,0c2.8-0.1,2.4,1.7,2.3,3.3c-0.1,1.6,0.7,3.6-2.3,3.8c-6,0.3-6,0.5-6,6.5
			c0,3.9-0.3,7.8,0.1,11.7c0.3,3.7-2,3-4.1,3.2c-2.5,0.2-3.8-0.4-3.6-3.3c0.3-4.7-0.1-9.3,0.1-14c0.2-3.1-0.6-4.7-4-4.1
			c-3.8,0.7-4.6-1.2-4.3-4.5c0.1-2.1,1-2.6,2.8-2.5C665.3,548.6,668.4,548.5,671.5,548.5z"/>
		<path class="st7" d="M694.7,563.2c0,3.9-0.1,7.8,0,11.6c0.1,3.1-2.1,2.5-3.7,2.3c-1.6-0.1-4.2,1.4-4.2-2.2c0-8,0.1-16,0-24.1
			c0-3.8,2.8-2.1,4.4-2.3c1.9-0.3,3.6-0.3,3.4,2.6C694.5,555.1,694.7,559.1,694.7,563.2z"/>
		<path class="st6" d="M538.1,512.3c0.8-1.2,0.4-2.5,0.4-3.7c0-8.7,0.1-17.4,0-26.1c-0.1-2.8,0.9-3.6,3.5-3.4
			c3.6,0.2,7.3,0.1,10.9,0c2-0.1,3,0.4,3,2.7c-0.1,19.7-0.1,39.5,0,59.2c0,2.1-0.8,2.8-2.7,2.6c-0.3,0-0.5,0-0.8,0
			c-10,1.9-16.6-1.8-21.3-11.1c-3.9-7.8-9.4-14.9-14.3-22.3c-1.3,0.7-0.7,1.9-0.7,2.7c-0.1,9.2-0.1,18.4,0,27.6c0,2.3-0.5,3.3-3,3.1
			c-3.8-0.2-7.5-0.2-11.3,0c-2.1,0.1-2.9-0.5-2.9-2.8c0.1-19.6,0.1-39.2,0-58.8c0-2.5,1-2.7,3.1-3c10.1-1.6,17,1.5,21.5,11.3
			c3.6,7.7,9.1,14.5,13.8,21.7C537.5,512.1,537.8,512.2,538.1,512.3z"/>
		<path class="st6" d="M489.1,502.2c0,5.5-0.1,10.9,0,16.4c0.3,10.5-4.4,18.2-13.4,23.3c-9.4,5.3-18.9,4.9-28.1-0.6
			c-8.2-5-12.4-12.3-12.4-21.9c0-12.2,0.1-24.4-0.1-36.6c0-2.7,0.6-3.7,3.4-3.5c3.6,0.2,7.3,0.2,10.9,0c2.9-0.2,3.8,0.7,3.7,3.6
			c-0.2,11.5-0.1,23.1-0.1,34.7c0,5.6,3,9.2,8,9.8c5.4,0.7,10-3.1,10.1-8.8c0.1-11.9,0.1-23.9,0-35.8c0-2.6,0.5-3.8,3.4-3.6
			c3.6,0.2,7.3,0.2,10.9,0c2.8-0.2,3.9,0.6,3.8,3.6C488.9,489.2,489,495.7,489.1,502.2C489,502.2,489,502.2,489.1,502.2z"/>
		<path class="st8" d="M503.5,563.6c0,3.4-0.2,6.9,0.1,10.3c0.3,3.7-2.1,3-4.2,3.1c-2.2,0.1-3.6-0.1-3.5-3c0.2-7.1,0-14.3,0.1-21.4
			c0-1.3-1-3.7,1.2-3.9c2.5-0.1,5.5-1.6,7.4,1.5c2.5,4.1,5.2,8.1,8.1,12.6c1-3.6,0.5-6.8,0.5-9.9c0-2.9,0-4.6,4-4.7
			c4.2,0,3.8,2.2,3.7,4.8c-0.1,6.5,0.1,13-0.1,19.4c0,1.4,1.3,4-1.3,4.1c-2.6,0.2-5.7,1.6-7.7-1.8c-2.3-4-5-7.7-7.5-11.6
			C504.1,563.4,503.8,563.5,503.5,563.6z"/>
		<path class="st8" d="M492.8,563c-0.1,8.1-6.7,14.8-14.9,14.9c-8.3,0-15.2-6.8-15.2-15c0-8.2,7-15.1,15.2-15
			C486.3,547.9,492.9,554.6,492.8,563z M485.2,562.9c0-4.4-3.3-7.9-7.4-7.9c-3.9,0.1-7.4,3.6-7.4,7.6c0,4.4,3.3,7.8,7.5,7.8
			C482,570.4,485.1,567.2,485.2,562.9z"/>
		<path class="st8" d="M537.4,547.5c2,0.3,4.1,0.5,6.1,1.1c4.7,1.2,4.9,2,2.3,6.2c-1,1.5-1.8,1.8-3.4,1c-2.1-1-4.4-1.5-6.8-1.3
			c-1.2,0.1-2.4,0.3-2.5,1.8c-0.1,1.3,1,1.8,2,2c2.5,0.7,5.1,1.2,7.5,2c5,1.6,6.7,4.1,6.4,8.9c-0.2,4.3-2.8,7-7.6,8
			c-4.8,1-9.6,0.6-14.1-1.3c-1-0.4-3.2-0.6-1.7-2.4c1.2-1.5,0.8-5.2,4.4-4c2,0.7,3.9,1.6,6,1.5c1.8,0,4.5,0.9,5-1.7
			c0.5-2.7-2.4-2.5-4.1-3c-1.7-0.6-3.5-0.8-5.3-1.4c-4.7-1.5-6.6-3.8-6.6-8c0-3.9,2.6-7.3,6.7-8.6
			C533.5,548,535.4,547.6,537.4,547.5z"/>
		<path class="st8" d="M461.1,552c-2.8,2.1-4.5,5.8-9.4,3.7c-3-1.3-5.8,1.2-7,4.2c-1.3,3-0.8,5.9,1.6,8.2c2.4,2.3,5.2,2.6,8.3,1.1
			c1-0.5,1.6-2.5,3.2-1.4c1.6,1.1,3.1,2.3,4.5,3.7c1,1-0.3,1.6-0.9,2.2c-5.4,5.5-15.2,5.5-20.7-0.1c-6-6.1-6.1-15.2-0.2-21.3
			C446.1,546.4,455.2,546.2,461.1,552z"/>
		<path class="st8" d="M559.7,566.1c0-1,0-2.1,0-3.1c0-2.2,0.6-4.8-0.3-6.5c-1.1-2.1-4-0.7-6-0.9c-3.2-0.2-1.8-2.6-2-4.1
			c-0.2-1.6-0.2-3.1,2.2-3c6.6,0.1,13.2,0.1,19.8,0c2.9,0,2,2.1,2,3.6c0.1,1.5,0.7,3.3-2.2,3.5c-5.9,0.3-5.9,0.5-5.9,6.7
			c0,4-0.2,8,0,12c0.2,3.3-2.1,2.6-3.9,2.6c-1.8,0-4.1,0.6-3.8-2.7C559.9,571.5,559.7,568.8,559.7,566.1z"/>
		<path class="st9" d="M626.9,338.2c-3.5-2.4-6.4-4.3-9.2-6.3c-7.2-4.9-14.3-9.8-21.5-14.7c-1.3-0.9-2.6-1.4-1.5-3.6
			c8.3-16.8,16.5-33.8,24.8-50.6c0.1-0.2,0.4-0.2,0.9-0.4C624.8,287.4,626,312.4,626.9,338.2z"/>
		<path class="st2" d="M553.3,220.5c-1.6,4.2-3,8.1-4.5,12.1c-4.6,12.4-9.3,24.8-14,37.1c-0.4,1-0.4,3.4-2.1,2.5c-2-1-5.7-2-5-4.5
			c2.2-7.9-2.2-13-6.6-18c-2.5-2.8-3.1-5.1-1.8-8.6c2.2-5.7,3.9-11.5,6.2-17.2c1.2-2.9,3-4.3,6.1-4.4
			C538.8,219.2,545.9,219.3,553.3,220.5z"/>
		<path class="st2" d="M516.3,251.9c2.8,2.6,4.3,5.1,5.4,7.9c1,2.6,0.9,5.1-0.9,7.3c-0.8,1-1.5,2.1-2.2,3.2c-4,5.8-8.8,7.1-15,4.3
			c-0.5-0.3-1.3-0.3-1.4-1.1c-0.1-0.8,0.6-1.2,1.2-1.3c7.3-1.2,9.6-6.6,10.9-13C514.8,256.9,515.5,254.7,516.3,251.9z"/>
		<path class="st1" d="M592.5,494.9c0.8,0,1.6,0,2.4,0c0.7,0.7,1.6,0.5,2.5,0.4c7.9,1.2,13.7,8.3,13.4,16.3
			c-0.3,8.4-6.5,15.3-14.5,15.9c-2.6,0.2-5.1,0-7.7-0.1c0-9.4,0-18.8,0-28.1c0-1.5-0.2-3.1,0.7-4.5c0.5,0,1.1,0,1.6,0
			C591.5,495.5,592,495.5,592.5,494.9z"/>
		<path class="st2" d="M589.4,494.9c-1,1.4-0.7,2.9-0.7,4.5c0,9.4,0,18.8,0,28.1c-3.4,0.9-4.5-0.4-4.4-3.9c0.2-8,0.1-16,0.1-24
			C584.3,494.6,584.3,494.6,589.4,494.9z"/>
		<path class="st2" d="M597.5,495.3c-0.9,0.1-1.8,0.3-2.5-0.4C595.8,494.7,596.7,494.7,597.5,495.3z"/>
		<path class="st2" d="M592.5,494.9c-0.5,0.6-1,0.6-1.5,0C591.5,494.9,592,494.9,592.5,494.9z"/>
		<path class="st9" d="M714.4,500.4c0-7,0-7,6.9-7c1.7,0,3.4,0,5,0.3c3.4,0.7,5.8,3.8,5.6,7c-0.2,3.4-3,6.2-6.6,6.5
			c-1.3,0.1-2.6,0-3.9,0C714.4,507.2,714.4,507.2,714.4,500.4z"/>
		<path class="st9" d="M706.9,563c-0.1-4.4,3.2-8,7.3-7.9c3.9,0,7.3,3.5,7.4,7.6c0.1,4.3-3.2,7.8-7.5,7.8
			C710.1,570.5,706.9,567.3,706.9,563z"/>
		<path class="st2" d="M588.2,560.9c-2.2,0.5-2.9-0.6-2.8-3c0.1-2,0.1-3.5,2.8-3.3c2.3,0.2,4.7,0.4,4.7,3.3
			C592.9,560.7,590.7,561.1,588.2,560.9z"/>
		<path class="st2" d="M485.2,562.9c0,4.3-3.1,7.5-7.2,7.6c-4.2,0-7.6-3.4-7.5-7.8c0-4,3.5-7.6,7.4-7.6
			C481.9,555,485.2,558.5,485.2,562.9z"/>
	</g>
</g>
</svg>
